%TF.GenerationSoftware,KiCad,Pcbnew,8.0.0*%
%TF.CreationDate,2024-03-31T23:42:56-03:00*%
%TF.ProjectId,circuito,63697263-7569-4746-9f2e-6b696361645f,rev?*%
%TF.SameCoordinates,Original*%
%TF.FileFunction,Legend,Top*%
%TF.FilePolarity,Positive*%
%FSLAX46Y46*%
G04 Gerber Fmt 4.6, Leading zero omitted, Abs format (unit mm)*
G04 Created by KiCad (PCBNEW 8.0.0) date 2024-03-31 23:42:56*
%MOMM*%
%LPD*%
G01*
G04 APERTURE LIST*
%ADD10C,0.150000*%
%ADD11C,0.100000*%
%ADD12C,0.120000*%
G04 APERTURE END LIST*
D10*
X146916905Y-77404819D02*
X146916905Y-76404819D01*
X146916905Y-76404819D02*
X147155000Y-76404819D01*
X147155000Y-76404819D02*
X147297857Y-76452438D01*
X147297857Y-76452438D02*
X147393095Y-76547676D01*
X147393095Y-76547676D02*
X147440714Y-76642914D01*
X147440714Y-76642914D02*
X147488333Y-76833390D01*
X147488333Y-76833390D02*
X147488333Y-76976247D01*
X147488333Y-76976247D02*
X147440714Y-77166723D01*
X147440714Y-77166723D02*
X147393095Y-77261961D01*
X147393095Y-77261961D02*
X147297857Y-77357200D01*
X147297857Y-77357200D02*
X147155000Y-77404819D01*
X147155000Y-77404819D02*
X146916905Y-77404819D01*
X148440714Y-77404819D02*
X147869286Y-77404819D01*
X148155000Y-77404819D02*
X148155000Y-76404819D01*
X148155000Y-76404819D02*
X148059762Y-76547676D01*
X148059762Y-76547676D02*
X147964524Y-76642914D01*
X147964524Y-76642914D02*
X147869286Y-76690533D01*
X167666666Y-36454819D02*
X167666666Y-37169104D01*
X167666666Y-37169104D02*
X167619047Y-37311961D01*
X167619047Y-37311961D02*
X167523809Y-37407200D01*
X167523809Y-37407200D02*
X167380952Y-37454819D01*
X167380952Y-37454819D02*
X167285714Y-37454819D01*
X168666666Y-37454819D02*
X168095238Y-37454819D01*
X168380952Y-37454819D02*
X168380952Y-36454819D01*
X168380952Y-36454819D02*
X168285714Y-36597676D01*
X168285714Y-36597676D02*
X168190476Y-36692914D01*
X168190476Y-36692914D02*
X168095238Y-36740533D01*
X172928571Y-52614700D02*
X174071429Y-52614700D01*
X173500000Y-53186128D02*
X173500000Y-52043271D01*
X161928571Y-52614700D02*
X163071429Y-52614700D01*
X161404761Y-81850057D02*
X161309523Y-81802438D01*
X161309523Y-81802438D02*
X161214285Y-81707200D01*
X161214285Y-81707200D02*
X161071428Y-81564342D01*
X161071428Y-81564342D02*
X160976190Y-81516723D01*
X160976190Y-81516723D02*
X160880952Y-81516723D01*
X160928571Y-81754819D02*
X160833333Y-81707200D01*
X160833333Y-81707200D02*
X160738095Y-81611961D01*
X160738095Y-81611961D02*
X160690476Y-81421485D01*
X160690476Y-81421485D02*
X160690476Y-81088152D01*
X160690476Y-81088152D02*
X160738095Y-80897676D01*
X160738095Y-80897676D02*
X160833333Y-80802438D01*
X160833333Y-80802438D02*
X160928571Y-80754819D01*
X160928571Y-80754819D02*
X161119047Y-80754819D01*
X161119047Y-80754819D02*
X161214285Y-80802438D01*
X161214285Y-80802438D02*
X161309523Y-80897676D01*
X161309523Y-80897676D02*
X161357142Y-81088152D01*
X161357142Y-81088152D02*
X161357142Y-81421485D01*
X161357142Y-81421485D02*
X161309523Y-81611961D01*
X161309523Y-81611961D02*
X161214285Y-81707200D01*
X161214285Y-81707200D02*
X161119047Y-81754819D01*
X161119047Y-81754819D02*
X160928571Y-81754819D01*
X162309523Y-81754819D02*
X161738095Y-81754819D01*
X162023809Y-81754819D02*
X162023809Y-80754819D01*
X162023809Y-80754819D02*
X161928571Y-80897676D01*
X161928571Y-80897676D02*
X161833333Y-80992914D01*
X161833333Y-80992914D02*
X161738095Y-81040533D01*
X142563333Y-61554819D02*
X142230000Y-61078628D01*
X141991905Y-61554819D02*
X141991905Y-60554819D01*
X141991905Y-60554819D02*
X142372857Y-60554819D01*
X142372857Y-60554819D02*
X142468095Y-60602438D01*
X142468095Y-60602438D02*
X142515714Y-60650057D01*
X142515714Y-60650057D02*
X142563333Y-60745295D01*
X142563333Y-60745295D02*
X142563333Y-60888152D01*
X142563333Y-60888152D02*
X142515714Y-60983390D01*
X142515714Y-60983390D02*
X142468095Y-61031009D01*
X142468095Y-61031009D02*
X142372857Y-61078628D01*
X142372857Y-61078628D02*
X141991905Y-61078628D01*
X143515714Y-61554819D02*
X142944286Y-61554819D01*
X143230000Y-61554819D02*
X143230000Y-60554819D01*
X143230000Y-60554819D02*
X143134762Y-60697676D01*
X143134762Y-60697676D02*
X143039524Y-60792914D01*
X143039524Y-60792914D02*
X142944286Y-60840533D01*
X109813095Y-73424819D02*
X109813095Y-74234342D01*
X109813095Y-74234342D02*
X109860714Y-74329580D01*
X109860714Y-74329580D02*
X109908333Y-74377200D01*
X109908333Y-74377200D02*
X110003571Y-74424819D01*
X110003571Y-74424819D02*
X110194047Y-74424819D01*
X110194047Y-74424819D02*
X110289285Y-74377200D01*
X110289285Y-74377200D02*
X110336904Y-74329580D01*
X110336904Y-74329580D02*
X110384523Y-74234342D01*
X110384523Y-74234342D02*
X110384523Y-73424819D01*
X111384523Y-74424819D02*
X110813095Y-74424819D01*
X111098809Y-74424819D02*
X111098809Y-73424819D01*
X111098809Y-73424819D02*
X111003571Y-73567676D01*
X111003571Y-73567676D02*
X110908333Y-73662914D01*
X110908333Y-73662914D02*
X110813095Y-73710533D01*
X114479761Y-100494200D02*
X114594047Y-100532295D01*
X114594047Y-100532295D02*
X114784523Y-100532295D01*
X114784523Y-100532295D02*
X114860714Y-100494200D01*
X114860714Y-100494200D02*
X114898809Y-100456104D01*
X114898809Y-100456104D02*
X114936904Y-100379914D01*
X114936904Y-100379914D02*
X114936904Y-100303723D01*
X114936904Y-100303723D02*
X114898809Y-100227533D01*
X114898809Y-100227533D02*
X114860714Y-100189438D01*
X114860714Y-100189438D02*
X114784523Y-100151342D01*
X114784523Y-100151342D02*
X114632142Y-100113247D01*
X114632142Y-100113247D02*
X114555952Y-100075152D01*
X114555952Y-100075152D02*
X114517857Y-100037057D01*
X114517857Y-100037057D02*
X114479761Y-99960866D01*
X114479761Y-99960866D02*
X114479761Y-99884676D01*
X114479761Y-99884676D02*
X114517857Y-99808485D01*
X114517857Y-99808485D02*
X114555952Y-99770390D01*
X114555952Y-99770390D02*
X114632142Y-99732295D01*
X114632142Y-99732295D02*
X114822619Y-99732295D01*
X114822619Y-99732295D02*
X114936904Y-99770390D01*
X115203571Y-99732295D02*
X115394047Y-100532295D01*
X115394047Y-100532295D02*
X115546428Y-99960866D01*
X115546428Y-99960866D02*
X115698809Y-100532295D01*
X115698809Y-100532295D02*
X115889286Y-99732295D01*
X116194048Y-100532295D02*
X116194048Y-99732295D01*
X116194048Y-99732295D02*
X116384524Y-99732295D01*
X116384524Y-99732295D02*
X116498810Y-99770390D01*
X116498810Y-99770390D02*
X116575000Y-99846580D01*
X116575000Y-99846580D02*
X116613095Y-99922771D01*
X116613095Y-99922771D02*
X116651191Y-100075152D01*
X116651191Y-100075152D02*
X116651191Y-100189438D01*
X116651191Y-100189438D02*
X116613095Y-100341819D01*
X116613095Y-100341819D02*
X116575000Y-100418009D01*
X116575000Y-100418009D02*
X116498810Y-100494200D01*
X116498810Y-100494200D02*
X116384524Y-100532295D01*
X116384524Y-100532295D02*
X116194048Y-100532295D01*
X116994048Y-100532295D02*
X116994048Y-99732295D01*
X117527381Y-99732295D02*
X117679762Y-99732295D01*
X117679762Y-99732295D02*
X117755952Y-99770390D01*
X117755952Y-99770390D02*
X117832143Y-99846580D01*
X117832143Y-99846580D02*
X117870238Y-99998961D01*
X117870238Y-99998961D02*
X117870238Y-100265628D01*
X117870238Y-100265628D02*
X117832143Y-100418009D01*
X117832143Y-100418009D02*
X117755952Y-100494200D01*
X117755952Y-100494200D02*
X117679762Y-100532295D01*
X117679762Y-100532295D02*
X117527381Y-100532295D01*
X117527381Y-100532295D02*
X117451190Y-100494200D01*
X117451190Y-100494200D02*
X117375000Y-100418009D01*
X117375000Y-100418009D02*
X117336904Y-100265628D01*
X117336904Y-100265628D02*
X117336904Y-99998961D01*
X117336904Y-99998961D02*
X117375000Y-99846580D01*
X117375000Y-99846580D02*
X117451190Y-99770390D01*
X117451190Y-99770390D02*
X117527381Y-99732295D01*
X97061435Y-93168431D02*
X96980623Y-93195368D01*
X96980623Y-93195368D02*
X96899811Y-93276180D01*
X96899811Y-93276180D02*
X96845936Y-93383930D01*
X96845936Y-93383930D02*
X96845936Y-93491680D01*
X96845936Y-93491680D02*
X96872873Y-93572492D01*
X96872873Y-93572492D02*
X96953685Y-93707179D01*
X96953685Y-93707179D02*
X97034498Y-93787991D01*
X97034498Y-93787991D02*
X97169185Y-93868803D01*
X97169185Y-93868803D02*
X97249997Y-93895741D01*
X97249997Y-93895741D02*
X97357746Y-93895741D01*
X97357746Y-93895741D02*
X97465496Y-93841866D01*
X97465496Y-93841866D02*
X97519371Y-93787991D01*
X97519371Y-93787991D02*
X97573246Y-93680241D01*
X97573246Y-93680241D02*
X97573246Y-93626367D01*
X97573246Y-93626367D02*
X97384684Y-93437805D01*
X97384684Y-93437805D02*
X97276934Y-93545554D01*
X97869557Y-93437805D02*
X97303872Y-92872119D01*
X97303872Y-92872119D02*
X98192806Y-93114556D01*
X98192806Y-93114556D02*
X97627120Y-92548871D01*
X98462180Y-92845182D02*
X97896494Y-92279497D01*
X97896494Y-92279497D02*
X98031181Y-92144810D01*
X98031181Y-92144810D02*
X98138931Y-92090935D01*
X98138931Y-92090935D02*
X98246680Y-92090935D01*
X98246680Y-92090935D02*
X98327493Y-92117872D01*
X98327493Y-92117872D02*
X98462180Y-92198685D01*
X98462180Y-92198685D02*
X98542992Y-92279497D01*
X98542992Y-92279497D02*
X98623804Y-92414184D01*
X98623804Y-92414184D02*
X98650741Y-92494996D01*
X98650741Y-92494996D02*
X98650741Y-92602746D01*
X98650741Y-92602746D02*
X98596867Y-92710495D01*
X98596867Y-92710495D02*
X98462180Y-92845182D01*
X97088372Y-75361494D02*
X97007560Y-75388431D01*
X97007560Y-75388431D02*
X96926748Y-75469243D01*
X96926748Y-75469243D02*
X96872873Y-75576993D01*
X96872873Y-75576993D02*
X96872873Y-75684742D01*
X96872873Y-75684742D02*
X96899810Y-75765555D01*
X96899810Y-75765555D02*
X96980623Y-75900242D01*
X96980623Y-75900242D02*
X97061435Y-75981054D01*
X97061435Y-75981054D02*
X97196122Y-76061866D01*
X97196122Y-76061866D02*
X97276934Y-76088803D01*
X97276934Y-76088803D02*
X97384684Y-76088803D01*
X97384684Y-76088803D02*
X97492433Y-76034929D01*
X97492433Y-76034929D02*
X97546308Y-75981054D01*
X97546308Y-75981054D02*
X97600183Y-75873304D01*
X97600183Y-75873304D02*
X97600183Y-75819429D01*
X97600183Y-75819429D02*
X97411621Y-75630868D01*
X97411621Y-75630868D02*
X97303871Y-75738617D01*
X97896494Y-75630868D02*
X97330809Y-75065182D01*
X97330809Y-75065182D02*
X97546308Y-74849683D01*
X97546308Y-74849683D02*
X97627120Y-74822746D01*
X97627120Y-74822746D02*
X97680995Y-74822746D01*
X97680995Y-74822746D02*
X97761807Y-74849683D01*
X97761807Y-74849683D02*
X97842619Y-74930495D01*
X97842619Y-74930495D02*
X97869557Y-75011307D01*
X97869557Y-75011307D02*
X97869557Y-75065182D01*
X97869557Y-75065182D02*
X97842619Y-75145994D01*
X97842619Y-75145994D02*
X97627120Y-75361494D01*
X98219743Y-74661121D02*
X98138931Y-74688059D01*
X98138931Y-74688059D02*
X98085056Y-74688059D01*
X98085056Y-74688059D02*
X98004244Y-74661121D01*
X98004244Y-74661121D02*
X97977306Y-74634184D01*
X97977306Y-74634184D02*
X97950369Y-74553372D01*
X97950369Y-74553372D02*
X97950369Y-74499497D01*
X97950369Y-74499497D02*
X97977306Y-74418685D01*
X97977306Y-74418685D02*
X98085056Y-74310935D01*
X98085056Y-74310935D02*
X98165868Y-74283998D01*
X98165868Y-74283998D02*
X98219743Y-74283998D01*
X98219743Y-74283998D02*
X98300555Y-74310935D01*
X98300555Y-74310935D02*
X98327493Y-74337872D01*
X98327493Y-74337872D02*
X98354430Y-74418685D01*
X98354430Y-74418685D02*
X98354430Y-74472559D01*
X98354430Y-74472559D02*
X98327493Y-74553372D01*
X98327493Y-74553372D02*
X98219743Y-74661121D01*
X98219743Y-74661121D02*
X98192806Y-74741933D01*
X98192806Y-74741933D02*
X98192806Y-74795808D01*
X98192806Y-74795808D02*
X98219743Y-74876620D01*
X98219743Y-74876620D02*
X98327493Y-74984370D01*
X98327493Y-74984370D02*
X98408305Y-75011307D01*
X98408305Y-75011307D02*
X98462180Y-75011307D01*
X98462180Y-75011307D02*
X98542992Y-74984370D01*
X98542992Y-74984370D02*
X98650741Y-74876620D01*
X98650741Y-74876620D02*
X98677679Y-74795808D01*
X98677679Y-74795808D02*
X98677679Y-74741933D01*
X98677679Y-74741933D02*
X98650741Y-74661121D01*
X98650741Y-74661121D02*
X98542992Y-74553372D01*
X98542992Y-74553372D02*
X98462180Y-74526434D01*
X98462180Y-74526434D02*
X98408305Y-74526434D01*
X98408305Y-74526434D02*
X98327493Y-74553372D01*
X122672998Y-85790868D02*
X122592185Y-85817805D01*
X122592185Y-85817805D02*
X122511373Y-85898618D01*
X122511373Y-85898618D02*
X122457498Y-86006367D01*
X122457498Y-86006367D02*
X122457498Y-86114117D01*
X122457498Y-86114117D02*
X122484436Y-86194929D01*
X122484436Y-86194929D02*
X122565248Y-86329616D01*
X122565248Y-86329616D02*
X122646060Y-86410428D01*
X122646060Y-86410428D02*
X122780747Y-86491241D01*
X122780747Y-86491241D02*
X122861560Y-86518178D01*
X122861560Y-86518178D02*
X122969309Y-86518178D01*
X122969309Y-86518178D02*
X123077059Y-86464303D01*
X123077059Y-86464303D02*
X123130934Y-86410428D01*
X123130934Y-86410428D02*
X123184808Y-86302679D01*
X123184808Y-86302679D02*
X123184808Y-86248804D01*
X123184808Y-86248804D02*
X122996247Y-86060242D01*
X122996247Y-86060242D02*
X122888497Y-86167992D01*
X123481120Y-86060242D02*
X122915434Y-85494557D01*
X122915434Y-85494557D02*
X123130934Y-85279057D01*
X123130934Y-85279057D02*
X123211746Y-85252120D01*
X123211746Y-85252120D02*
X123265621Y-85252120D01*
X123265621Y-85252120D02*
X123346433Y-85279057D01*
X123346433Y-85279057D02*
X123427245Y-85359870D01*
X123427245Y-85359870D02*
X123454182Y-85440682D01*
X123454182Y-85440682D02*
X123454182Y-85494557D01*
X123454182Y-85494557D02*
X123427245Y-85575369D01*
X123427245Y-85575369D02*
X123211746Y-85790868D01*
X123508057Y-85009683D02*
X123508057Y-84955809D01*
X123508057Y-84955809D02*
X123534995Y-84874996D01*
X123534995Y-84874996D02*
X123669682Y-84740309D01*
X123669682Y-84740309D02*
X123750494Y-84713372D01*
X123750494Y-84713372D02*
X123804369Y-84713372D01*
X123804369Y-84713372D02*
X123885181Y-84740309D01*
X123885181Y-84740309D02*
X123939056Y-84794184D01*
X123939056Y-84794184D02*
X123992930Y-84901934D01*
X123992930Y-84901934D02*
X123992930Y-85548431D01*
X123992930Y-85548431D02*
X124343117Y-85198245D01*
X124127618Y-84282373D02*
X124181492Y-84228499D01*
X124181492Y-84228499D02*
X124262305Y-84201561D01*
X124262305Y-84201561D02*
X124316179Y-84201561D01*
X124316179Y-84201561D02*
X124396992Y-84228499D01*
X124396992Y-84228499D02*
X124531679Y-84309311D01*
X124531679Y-84309311D02*
X124666366Y-84443998D01*
X124666366Y-84443998D02*
X124747178Y-84578685D01*
X124747178Y-84578685D02*
X124774115Y-84659497D01*
X124774115Y-84659497D02*
X124774115Y-84713372D01*
X124774115Y-84713372D02*
X124747178Y-84794184D01*
X124747178Y-84794184D02*
X124693303Y-84848059D01*
X124693303Y-84848059D02*
X124612491Y-84874996D01*
X124612491Y-84874996D02*
X124558616Y-84874996D01*
X124558616Y-84874996D02*
X124477804Y-84848059D01*
X124477804Y-84848059D02*
X124343117Y-84767247D01*
X124343117Y-84767247D02*
X124208430Y-84632560D01*
X124208430Y-84632560D02*
X124127618Y-84497873D01*
X124127618Y-84497873D02*
X124100680Y-84417060D01*
X124100680Y-84417060D02*
X124100680Y-84363186D01*
X124100680Y-84363186D02*
X124127618Y-84282373D01*
X122672998Y-78170868D02*
X122592185Y-78197805D01*
X122592185Y-78197805D02*
X122511373Y-78278618D01*
X122511373Y-78278618D02*
X122457498Y-78386367D01*
X122457498Y-78386367D02*
X122457498Y-78494117D01*
X122457498Y-78494117D02*
X122484436Y-78574929D01*
X122484436Y-78574929D02*
X122565248Y-78709616D01*
X122565248Y-78709616D02*
X122646060Y-78790428D01*
X122646060Y-78790428D02*
X122780747Y-78871241D01*
X122780747Y-78871241D02*
X122861560Y-78898178D01*
X122861560Y-78898178D02*
X122969309Y-78898178D01*
X122969309Y-78898178D02*
X123077059Y-78844303D01*
X123077059Y-78844303D02*
X123130934Y-78790428D01*
X123130934Y-78790428D02*
X123184808Y-78682679D01*
X123184808Y-78682679D02*
X123184808Y-78628804D01*
X123184808Y-78628804D02*
X122996247Y-78440242D01*
X122996247Y-78440242D02*
X122888497Y-78547992D01*
X123481120Y-78440242D02*
X122915434Y-77874557D01*
X122915434Y-77874557D02*
X123130934Y-77659057D01*
X123130934Y-77659057D02*
X123211746Y-77632120D01*
X123211746Y-77632120D02*
X123265621Y-77632120D01*
X123265621Y-77632120D02*
X123346433Y-77659057D01*
X123346433Y-77659057D02*
X123427245Y-77739870D01*
X123427245Y-77739870D02*
X123454182Y-77820682D01*
X123454182Y-77820682D02*
X123454182Y-77874557D01*
X123454182Y-77874557D02*
X123427245Y-77955369D01*
X123427245Y-77955369D02*
X123211746Y-78170868D01*
X123508057Y-77389683D02*
X123508057Y-77335809D01*
X123508057Y-77335809D02*
X123534995Y-77254996D01*
X123534995Y-77254996D02*
X123669682Y-77120309D01*
X123669682Y-77120309D02*
X123750494Y-77093372D01*
X123750494Y-77093372D02*
X123804369Y-77093372D01*
X123804369Y-77093372D02*
X123885181Y-77120309D01*
X123885181Y-77120309D02*
X123939056Y-77174184D01*
X123939056Y-77174184D02*
X123992930Y-77281934D01*
X123992930Y-77281934D02*
X123992930Y-77928431D01*
X123992930Y-77928431D02*
X124343117Y-77578245D01*
X124046805Y-76850935D02*
X124046805Y-76797060D01*
X124046805Y-76797060D02*
X124073743Y-76716248D01*
X124073743Y-76716248D02*
X124208430Y-76581561D01*
X124208430Y-76581561D02*
X124289242Y-76554624D01*
X124289242Y-76554624D02*
X124343117Y-76554624D01*
X124343117Y-76554624D02*
X124423929Y-76581561D01*
X124423929Y-76581561D02*
X124477804Y-76635436D01*
X124477804Y-76635436D02*
X124531679Y-76743186D01*
X124531679Y-76743186D02*
X124531679Y-77389683D01*
X124531679Y-77389683D02*
X124881865Y-77039497D01*
X122661435Y-93168431D02*
X122580623Y-93195368D01*
X122580623Y-93195368D02*
X122499811Y-93276180D01*
X122499811Y-93276180D02*
X122445936Y-93383930D01*
X122445936Y-93383930D02*
X122445936Y-93491680D01*
X122445936Y-93491680D02*
X122472873Y-93572492D01*
X122472873Y-93572492D02*
X122553685Y-93707179D01*
X122553685Y-93707179D02*
X122634498Y-93787991D01*
X122634498Y-93787991D02*
X122769185Y-93868803D01*
X122769185Y-93868803D02*
X122849997Y-93895741D01*
X122849997Y-93895741D02*
X122957746Y-93895741D01*
X122957746Y-93895741D02*
X123065496Y-93841866D01*
X123065496Y-93841866D02*
X123119371Y-93787991D01*
X123119371Y-93787991D02*
X123173246Y-93680241D01*
X123173246Y-93680241D02*
X123173246Y-93626367D01*
X123173246Y-93626367D02*
X122984684Y-93437805D01*
X122984684Y-93437805D02*
X122876934Y-93545554D01*
X123469557Y-93437805D02*
X122903872Y-92872119D01*
X122903872Y-92872119D02*
X123792806Y-93114556D01*
X123792806Y-93114556D02*
X123227120Y-92548871D01*
X124062180Y-92845182D02*
X123496494Y-92279497D01*
X123496494Y-92279497D02*
X123631181Y-92144810D01*
X123631181Y-92144810D02*
X123738931Y-92090935D01*
X123738931Y-92090935D02*
X123846680Y-92090935D01*
X123846680Y-92090935D02*
X123927493Y-92117872D01*
X123927493Y-92117872D02*
X124062180Y-92198685D01*
X124062180Y-92198685D02*
X124142992Y-92279497D01*
X124142992Y-92279497D02*
X124223804Y-92414184D01*
X124223804Y-92414184D02*
X124250741Y-92494996D01*
X124250741Y-92494996D02*
X124250741Y-92602746D01*
X124250741Y-92602746D02*
X124196867Y-92710495D01*
X124196867Y-92710495D02*
X124062180Y-92845182D01*
X122730064Y-63504049D02*
X122999438Y-63234675D01*
X122837813Y-63719549D02*
X122460690Y-62965301D01*
X122460690Y-62965301D02*
X123214937Y-63342425D01*
X123403499Y-63153863D02*
X122837813Y-62588178D01*
X122837813Y-62588178D02*
X122972500Y-62453491D01*
X122972500Y-62453491D02*
X123080250Y-62399616D01*
X123080250Y-62399616D02*
X123187999Y-62399616D01*
X123187999Y-62399616D02*
X123268812Y-62426553D01*
X123268812Y-62426553D02*
X123403499Y-62507366D01*
X123403499Y-62507366D02*
X123484311Y-62588178D01*
X123484311Y-62588178D02*
X123565123Y-62722865D01*
X123565123Y-62722865D02*
X123592060Y-62803677D01*
X123592060Y-62803677D02*
X123592060Y-62911427D01*
X123592060Y-62911427D02*
X123538186Y-63019176D01*
X123538186Y-63019176D02*
X123403499Y-63153863D01*
X124238558Y-62211054D02*
X124238558Y-62264929D01*
X124238558Y-62264929D02*
X124184683Y-62372679D01*
X124184683Y-62372679D02*
X124130808Y-62426553D01*
X124130808Y-62426553D02*
X124023059Y-62480428D01*
X124023059Y-62480428D02*
X123915309Y-62480428D01*
X123915309Y-62480428D02*
X123834497Y-62453491D01*
X123834497Y-62453491D02*
X123699810Y-62372679D01*
X123699810Y-62372679D02*
X123618998Y-62291866D01*
X123618998Y-62291866D02*
X123538186Y-62157179D01*
X123538186Y-62157179D02*
X123511248Y-62076367D01*
X123511248Y-62076367D02*
X123511248Y-61968618D01*
X123511248Y-61968618D02*
X123565123Y-61860868D01*
X123565123Y-61860868D02*
X123618998Y-61806993D01*
X123618998Y-61806993D02*
X123726747Y-61753118D01*
X123726747Y-61753118D02*
X123780622Y-61753118D01*
X124454057Y-62211054D02*
X124885056Y-61780056D01*
X124319370Y-61106621D02*
X125073618Y-61483744D01*
X125073618Y-61483744D02*
X124696494Y-60729497D01*
X125773990Y-60783372D02*
X125316054Y-60702560D01*
X125450741Y-61106621D02*
X124885056Y-60540935D01*
X124885056Y-60540935D02*
X125100555Y-60325436D01*
X125100555Y-60325436D02*
X125181367Y-60298499D01*
X125181367Y-60298499D02*
X125235242Y-60298499D01*
X125235242Y-60298499D02*
X125316054Y-60325436D01*
X125316054Y-60325436D02*
X125396866Y-60406248D01*
X125396866Y-60406248D02*
X125423804Y-60487061D01*
X125423804Y-60487061D02*
X125423804Y-60540935D01*
X125423804Y-60540935D02*
X125396866Y-60621748D01*
X125396866Y-60621748D02*
X125181367Y-60837247D01*
X125720115Y-60244624D02*
X125908677Y-60056062D01*
X126285800Y-60271561D02*
X126016426Y-60540935D01*
X126016426Y-60540935D02*
X125450741Y-59975250D01*
X125450741Y-59975250D02*
X125720115Y-59705876D01*
X126420488Y-59544251D02*
X126231926Y-59732813D01*
X126528237Y-60029125D02*
X125962552Y-59463439D01*
X125962552Y-59463439D02*
X126231926Y-59194065D01*
X97061435Y-80468431D02*
X96980623Y-80495368D01*
X96980623Y-80495368D02*
X96899811Y-80576180D01*
X96899811Y-80576180D02*
X96845936Y-80683930D01*
X96845936Y-80683930D02*
X96845936Y-80791680D01*
X96845936Y-80791680D02*
X96872873Y-80872492D01*
X96872873Y-80872492D02*
X96953685Y-81007179D01*
X96953685Y-81007179D02*
X97034498Y-81087991D01*
X97034498Y-81087991D02*
X97169185Y-81168803D01*
X97169185Y-81168803D02*
X97249997Y-81195741D01*
X97249997Y-81195741D02*
X97357746Y-81195741D01*
X97357746Y-81195741D02*
X97465496Y-81141866D01*
X97465496Y-81141866D02*
X97519371Y-81087991D01*
X97519371Y-81087991D02*
X97573246Y-80980241D01*
X97573246Y-80980241D02*
X97573246Y-80926367D01*
X97573246Y-80926367D02*
X97384684Y-80737805D01*
X97384684Y-80737805D02*
X97276934Y-80845554D01*
X97869557Y-80737805D02*
X97303872Y-80172119D01*
X97303872Y-80172119D02*
X98192806Y-80414556D01*
X98192806Y-80414556D02*
X97627120Y-79848871D01*
X98462180Y-80145182D02*
X97896494Y-79579497D01*
X97896494Y-79579497D02*
X98031181Y-79444810D01*
X98031181Y-79444810D02*
X98138931Y-79390935D01*
X98138931Y-79390935D02*
X98246680Y-79390935D01*
X98246680Y-79390935D02*
X98327493Y-79417872D01*
X98327493Y-79417872D02*
X98462180Y-79498685D01*
X98462180Y-79498685D02*
X98542992Y-79579497D01*
X98542992Y-79579497D02*
X98623804Y-79714184D01*
X98623804Y-79714184D02*
X98650741Y-79794996D01*
X98650741Y-79794996D02*
X98650741Y-79902746D01*
X98650741Y-79902746D02*
X98596867Y-80010495D01*
X98596867Y-80010495D02*
X98462180Y-80145182D01*
X97088372Y-49961494D02*
X97007560Y-49988431D01*
X97007560Y-49988431D02*
X96926748Y-50069243D01*
X96926748Y-50069243D02*
X96872873Y-50176993D01*
X96872873Y-50176993D02*
X96872873Y-50284742D01*
X96872873Y-50284742D02*
X96899810Y-50365555D01*
X96899810Y-50365555D02*
X96980623Y-50500242D01*
X96980623Y-50500242D02*
X97061435Y-50581054D01*
X97061435Y-50581054D02*
X97196122Y-50661866D01*
X97196122Y-50661866D02*
X97276934Y-50688803D01*
X97276934Y-50688803D02*
X97384684Y-50688803D01*
X97384684Y-50688803D02*
X97492433Y-50634929D01*
X97492433Y-50634929D02*
X97546308Y-50581054D01*
X97546308Y-50581054D02*
X97600183Y-50473304D01*
X97600183Y-50473304D02*
X97600183Y-50419429D01*
X97600183Y-50419429D02*
X97411621Y-50230868D01*
X97411621Y-50230868D02*
X97303871Y-50338617D01*
X97896494Y-50230868D02*
X97330809Y-49665182D01*
X97330809Y-49665182D02*
X97546308Y-49449683D01*
X97546308Y-49449683D02*
X97627120Y-49422746D01*
X97627120Y-49422746D02*
X97680995Y-49422746D01*
X97680995Y-49422746D02*
X97761807Y-49449683D01*
X97761807Y-49449683D02*
X97842619Y-49530495D01*
X97842619Y-49530495D02*
X97869557Y-49611307D01*
X97869557Y-49611307D02*
X97869557Y-49665182D01*
X97869557Y-49665182D02*
X97842619Y-49745994D01*
X97842619Y-49745994D02*
X97627120Y-49961494D01*
X98004244Y-48991747D02*
X98058119Y-48937872D01*
X98058119Y-48937872D02*
X98138931Y-48910935D01*
X98138931Y-48910935D02*
X98192806Y-48910935D01*
X98192806Y-48910935D02*
X98273618Y-48937872D01*
X98273618Y-48937872D02*
X98408305Y-49018685D01*
X98408305Y-49018685D02*
X98542992Y-49153372D01*
X98542992Y-49153372D02*
X98623804Y-49288059D01*
X98623804Y-49288059D02*
X98650741Y-49368871D01*
X98650741Y-49368871D02*
X98650741Y-49422746D01*
X98650741Y-49422746D02*
X98623804Y-49503558D01*
X98623804Y-49503558D02*
X98569929Y-49557433D01*
X98569929Y-49557433D02*
X98489117Y-49584370D01*
X98489117Y-49584370D02*
X98435242Y-49584370D01*
X98435242Y-49584370D02*
X98354430Y-49557433D01*
X98354430Y-49557433D02*
X98219743Y-49476620D01*
X98219743Y-49476620D02*
X98085056Y-49341933D01*
X98085056Y-49341933D02*
X98004244Y-49207246D01*
X98004244Y-49207246D02*
X97977306Y-49126434D01*
X97977306Y-49126434D02*
X97977306Y-49072559D01*
X97977306Y-49072559D02*
X98004244Y-48991747D01*
X122661435Y-80468431D02*
X122580623Y-80495368D01*
X122580623Y-80495368D02*
X122499811Y-80576180D01*
X122499811Y-80576180D02*
X122445936Y-80683930D01*
X122445936Y-80683930D02*
X122445936Y-80791680D01*
X122445936Y-80791680D02*
X122472873Y-80872492D01*
X122472873Y-80872492D02*
X122553685Y-81007179D01*
X122553685Y-81007179D02*
X122634498Y-81087991D01*
X122634498Y-81087991D02*
X122769185Y-81168803D01*
X122769185Y-81168803D02*
X122849997Y-81195741D01*
X122849997Y-81195741D02*
X122957746Y-81195741D01*
X122957746Y-81195741D02*
X123065496Y-81141866D01*
X123065496Y-81141866D02*
X123119371Y-81087991D01*
X123119371Y-81087991D02*
X123173246Y-80980241D01*
X123173246Y-80980241D02*
X123173246Y-80926367D01*
X123173246Y-80926367D02*
X122984684Y-80737805D01*
X122984684Y-80737805D02*
X122876934Y-80845554D01*
X123469557Y-80737805D02*
X122903872Y-80172119D01*
X122903872Y-80172119D02*
X123792806Y-80414556D01*
X123792806Y-80414556D02*
X123227120Y-79848871D01*
X124062180Y-80145182D02*
X123496494Y-79579497D01*
X123496494Y-79579497D02*
X123631181Y-79444810D01*
X123631181Y-79444810D02*
X123738931Y-79390935D01*
X123738931Y-79390935D02*
X123846680Y-79390935D01*
X123846680Y-79390935D02*
X123927493Y-79417872D01*
X123927493Y-79417872D02*
X124062180Y-79498685D01*
X124062180Y-79498685D02*
X124142992Y-79579497D01*
X124142992Y-79579497D02*
X124223804Y-79714184D01*
X124223804Y-79714184D02*
X124250741Y-79794996D01*
X124250741Y-79794996D02*
X124250741Y-79902746D01*
X124250741Y-79902746D02*
X124196867Y-80010495D01*
X124196867Y-80010495D02*
X124062180Y-80145182D01*
X97188372Y-72791494D02*
X97107560Y-72818431D01*
X97107560Y-72818431D02*
X97026748Y-72899243D01*
X97026748Y-72899243D02*
X96972873Y-73006993D01*
X96972873Y-73006993D02*
X96972873Y-73114742D01*
X96972873Y-73114742D02*
X96999810Y-73195555D01*
X96999810Y-73195555D02*
X97080623Y-73330242D01*
X97080623Y-73330242D02*
X97161435Y-73411054D01*
X97161435Y-73411054D02*
X97296122Y-73491866D01*
X97296122Y-73491866D02*
X97376934Y-73518803D01*
X97376934Y-73518803D02*
X97484684Y-73518803D01*
X97484684Y-73518803D02*
X97592433Y-73464929D01*
X97592433Y-73464929D02*
X97646308Y-73411054D01*
X97646308Y-73411054D02*
X97700183Y-73303304D01*
X97700183Y-73303304D02*
X97700183Y-73249429D01*
X97700183Y-73249429D02*
X97511621Y-73060868D01*
X97511621Y-73060868D02*
X97403871Y-73168617D01*
X97996494Y-73060868D02*
X97430809Y-72495182D01*
X97430809Y-72495182D02*
X97646308Y-72279683D01*
X97646308Y-72279683D02*
X97727120Y-72252746D01*
X97727120Y-72252746D02*
X97780995Y-72252746D01*
X97780995Y-72252746D02*
X97861807Y-72279683D01*
X97861807Y-72279683D02*
X97942619Y-72360495D01*
X97942619Y-72360495D02*
X97969557Y-72441307D01*
X97969557Y-72441307D02*
X97969557Y-72495182D01*
X97969557Y-72495182D02*
X97942619Y-72575994D01*
X97942619Y-72575994D02*
X97727120Y-72791494D01*
X97942619Y-71983372D02*
X98319743Y-71606248D01*
X98319743Y-71606248D02*
X98642992Y-72414370D01*
X122672998Y-70560868D02*
X122592185Y-70587805D01*
X122592185Y-70587805D02*
X122511373Y-70668618D01*
X122511373Y-70668618D02*
X122457498Y-70776367D01*
X122457498Y-70776367D02*
X122457498Y-70884117D01*
X122457498Y-70884117D02*
X122484436Y-70964929D01*
X122484436Y-70964929D02*
X122565248Y-71099616D01*
X122565248Y-71099616D02*
X122646060Y-71180428D01*
X122646060Y-71180428D02*
X122780747Y-71261241D01*
X122780747Y-71261241D02*
X122861560Y-71288178D01*
X122861560Y-71288178D02*
X122969309Y-71288178D01*
X122969309Y-71288178D02*
X123077059Y-71234303D01*
X123077059Y-71234303D02*
X123130934Y-71180428D01*
X123130934Y-71180428D02*
X123184808Y-71072679D01*
X123184808Y-71072679D02*
X123184808Y-71018804D01*
X123184808Y-71018804D02*
X122996247Y-70830242D01*
X122996247Y-70830242D02*
X122888497Y-70937992D01*
X123481120Y-70830242D02*
X122915434Y-70264557D01*
X122915434Y-70264557D02*
X123130934Y-70049057D01*
X123130934Y-70049057D02*
X123211746Y-70022120D01*
X123211746Y-70022120D02*
X123265621Y-70022120D01*
X123265621Y-70022120D02*
X123346433Y-70049057D01*
X123346433Y-70049057D02*
X123427245Y-70129870D01*
X123427245Y-70129870D02*
X123454182Y-70210682D01*
X123454182Y-70210682D02*
X123454182Y-70264557D01*
X123454182Y-70264557D02*
X123427245Y-70345369D01*
X123427245Y-70345369D02*
X123211746Y-70560868D01*
X123508057Y-69779683D02*
X123508057Y-69725809D01*
X123508057Y-69725809D02*
X123534995Y-69644996D01*
X123534995Y-69644996D02*
X123669682Y-69510309D01*
X123669682Y-69510309D02*
X123750494Y-69483372D01*
X123750494Y-69483372D02*
X123804369Y-69483372D01*
X123804369Y-69483372D02*
X123885181Y-69510309D01*
X123885181Y-69510309D02*
X123939056Y-69564184D01*
X123939056Y-69564184D02*
X123992930Y-69671934D01*
X123992930Y-69671934D02*
X123992930Y-70318431D01*
X123992930Y-70318431D02*
X124343117Y-69968245D01*
X123965993Y-69213998D02*
X124343117Y-68836874D01*
X124343117Y-68836874D02*
X124666366Y-69644996D01*
X97088372Y-60121494D02*
X97007560Y-60148431D01*
X97007560Y-60148431D02*
X96926748Y-60229243D01*
X96926748Y-60229243D02*
X96872873Y-60336993D01*
X96872873Y-60336993D02*
X96872873Y-60444742D01*
X96872873Y-60444742D02*
X96899810Y-60525555D01*
X96899810Y-60525555D02*
X96980623Y-60660242D01*
X96980623Y-60660242D02*
X97061435Y-60741054D01*
X97061435Y-60741054D02*
X97196122Y-60821866D01*
X97196122Y-60821866D02*
X97276934Y-60848803D01*
X97276934Y-60848803D02*
X97384684Y-60848803D01*
X97384684Y-60848803D02*
X97492433Y-60794929D01*
X97492433Y-60794929D02*
X97546308Y-60741054D01*
X97546308Y-60741054D02*
X97600183Y-60633304D01*
X97600183Y-60633304D02*
X97600183Y-60579429D01*
X97600183Y-60579429D02*
X97411621Y-60390868D01*
X97411621Y-60390868D02*
X97303871Y-60498617D01*
X97896494Y-60390868D02*
X97330809Y-59825182D01*
X97330809Y-59825182D02*
X97546308Y-59609683D01*
X97546308Y-59609683D02*
X97627120Y-59582746D01*
X97627120Y-59582746D02*
X97680995Y-59582746D01*
X97680995Y-59582746D02*
X97761807Y-59609683D01*
X97761807Y-59609683D02*
X97842619Y-59690495D01*
X97842619Y-59690495D02*
X97869557Y-59771307D01*
X97869557Y-59771307D02*
X97869557Y-59825182D01*
X97869557Y-59825182D02*
X97842619Y-59905994D01*
X97842619Y-59905994D02*
X97627120Y-60121494D01*
X97842619Y-59313372D02*
X98192806Y-58963185D01*
X98192806Y-58963185D02*
X98219743Y-59367246D01*
X98219743Y-59367246D02*
X98300555Y-59286434D01*
X98300555Y-59286434D02*
X98381367Y-59259497D01*
X98381367Y-59259497D02*
X98435242Y-59259497D01*
X98435242Y-59259497D02*
X98516054Y-59286434D01*
X98516054Y-59286434D02*
X98650741Y-59421121D01*
X98650741Y-59421121D02*
X98677679Y-59501933D01*
X98677679Y-59501933D02*
X98677679Y-59555808D01*
X98677679Y-59555808D02*
X98650741Y-59636620D01*
X98650741Y-59636620D02*
X98489117Y-59798245D01*
X98489117Y-59798245D02*
X98408305Y-59825182D01*
X98408305Y-59825182D02*
X98354430Y-59825182D01*
X96518998Y-95950868D02*
X96438185Y-95977805D01*
X96438185Y-95977805D02*
X96357373Y-96058618D01*
X96357373Y-96058618D02*
X96303498Y-96166367D01*
X96303498Y-96166367D02*
X96303498Y-96274117D01*
X96303498Y-96274117D02*
X96330436Y-96354929D01*
X96330436Y-96354929D02*
X96411248Y-96489616D01*
X96411248Y-96489616D02*
X96492060Y-96570428D01*
X96492060Y-96570428D02*
X96626747Y-96651241D01*
X96626747Y-96651241D02*
X96707560Y-96678178D01*
X96707560Y-96678178D02*
X96815309Y-96678178D01*
X96815309Y-96678178D02*
X96923059Y-96624303D01*
X96923059Y-96624303D02*
X96976934Y-96570428D01*
X96976934Y-96570428D02*
X97030808Y-96462679D01*
X97030808Y-96462679D02*
X97030808Y-96408804D01*
X97030808Y-96408804D02*
X96842247Y-96220242D01*
X96842247Y-96220242D02*
X96734497Y-96327992D01*
X97327120Y-96220242D02*
X96761434Y-95654557D01*
X96761434Y-95654557D02*
X96976934Y-95439057D01*
X96976934Y-95439057D02*
X97057746Y-95412120D01*
X97057746Y-95412120D02*
X97111621Y-95412120D01*
X97111621Y-95412120D02*
X97192433Y-95439057D01*
X97192433Y-95439057D02*
X97273245Y-95519870D01*
X97273245Y-95519870D02*
X97300182Y-95600682D01*
X97300182Y-95600682D02*
X97300182Y-95654557D01*
X97300182Y-95654557D02*
X97273245Y-95735369D01*
X97273245Y-95735369D02*
X97057746Y-95950868D01*
X98189117Y-95358245D02*
X97865868Y-95681494D01*
X98027492Y-95519870D02*
X97461807Y-94954184D01*
X97461807Y-94954184D02*
X97488744Y-95088871D01*
X97488744Y-95088871D02*
X97488744Y-95196621D01*
X97488744Y-95196621D02*
X97461807Y-95277433D01*
X98296866Y-94496248D02*
X98673990Y-94873372D01*
X97946680Y-94415436D02*
X98216054Y-94954184D01*
X98216054Y-94954184D02*
X98566240Y-94603998D01*
X96988372Y-57581494D02*
X96907560Y-57608431D01*
X96907560Y-57608431D02*
X96826748Y-57689243D01*
X96826748Y-57689243D02*
X96772873Y-57796993D01*
X96772873Y-57796993D02*
X96772873Y-57904742D01*
X96772873Y-57904742D02*
X96799810Y-57985555D01*
X96799810Y-57985555D02*
X96880623Y-58120242D01*
X96880623Y-58120242D02*
X96961435Y-58201054D01*
X96961435Y-58201054D02*
X97096122Y-58281866D01*
X97096122Y-58281866D02*
X97176934Y-58308803D01*
X97176934Y-58308803D02*
X97284684Y-58308803D01*
X97284684Y-58308803D02*
X97392433Y-58254929D01*
X97392433Y-58254929D02*
X97446308Y-58201054D01*
X97446308Y-58201054D02*
X97500183Y-58093304D01*
X97500183Y-58093304D02*
X97500183Y-58039429D01*
X97500183Y-58039429D02*
X97311621Y-57850868D01*
X97311621Y-57850868D02*
X97203871Y-57958617D01*
X97796494Y-57850868D02*
X97230809Y-57285182D01*
X97230809Y-57285182D02*
X97446308Y-57069683D01*
X97446308Y-57069683D02*
X97527120Y-57042746D01*
X97527120Y-57042746D02*
X97580995Y-57042746D01*
X97580995Y-57042746D02*
X97661807Y-57069683D01*
X97661807Y-57069683D02*
X97742619Y-57150495D01*
X97742619Y-57150495D02*
X97769557Y-57231307D01*
X97769557Y-57231307D02*
X97769557Y-57285182D01*
X97769557Y-57285182D02*
X97742619Y-57365994D01*
X97742619Y-57365994D02*
X97527120Y-57581494D01*
X97823432Y-56800309D02*
X97823432Y-56746434D01*
X97823432Y-56746434D02*
X97850369Y-56665622D01*
X97850369Y-56665622D02*
X97985056Y-56530935D01*
X97985056Y-56530935D02*
X98065868Y-56503998D01*
X98065868Y-56503998D02*
X98119743Y-56503998D01*
X98119743Y-56503998D02*
X98200555Y-56530935D01*
X98200555Y-56530935D02*
X98254430Y-56584810D01*
X98254430Y-56584810D02*
X98308305Y-56692559D01*
X98308305Y-56692559D02*
X98308305Y-57339057D01*
X98308305Y-57339057D02*
X98658491Y-56988871D01*
X122672998Y-88330868D02*
X122592185Y-88357805D01*
X122592185Y-88357805D02*
X122511373Y-88438618D01*
X122511373Y-88438618D02*
X122457498Y-88546367D01*
X122457498Y-88546367D02*
X122457498Y-88654117D01*
X122457498Y-88654117D02*
X122484436Y-88734929D01*
X122484436Y-88734929D02*
X122565248Y-88869616D01*
X122565248Y-88869616D02*
X122646060Y-88950428D01*
X122646060Y-88950428D02*
X122780747Y-89031241D01*
X122780747Y-89031241D02*
X122861560Y-89058178D01*
X122861560Y-89058178D02*
X122969309Y-89058178D01*
X122969309Y-89058178D02*
X123077059Y-89004303D01*
X123077059Y-89004303D02*
X123130934Y-88950428D01*
X123130934Y-88950428D02*
X123184808Y-88842679D01*
X123184808Y-88842679D02*
X123184808Y-88788804D01*
X123184808Y-88788804D02*
X122996247Y-88600242D01*
X122996247Y-88600242D02*
X122888497Y-88707992D01*
X123481120Y-88600242D02*
X122915434Y-88034557D01*
X122915434Y-88034557D02*
X123130934Y-87819057D01*
X123130934Y-87819057D02*
X123211746Y-87792120D01*
X123211746Y-87792120D02*
X123265621Y-87792120D01*
X123265621Y-87792120D02*
X123346433Y-87819057D01*
X123346433Y-87819057D02*
X123427245Y-87899870D01*
X123427245Y-87899870D02*
X123454182Y-87980682D01*
X123454182Y-87980682D02*
X123454182Y-88034557D01*
X123454182Y-88034557D02*
X123427245Y-88115369D01*
X123427245Y-88115369D02*
X123211746Y-88330868D01*
X124343117Y-87738245D02*
X124019868Y-88061494D01*
X124181492Y-87899870D02*
X123615807Y-87334184D01*
X123615807Y-87334184D02*
X123642744Y-87468871D01*
X123642744Y-87468871D02*
X123642744Y-87576621D01*
X123642744Y-87576621D02*
X123615807Y-87657433D01*
X124612491Y-87468871D02*
X124720240Y-87361121D01*
X124720240Y-87361121D02*
X124747178Y-87280309D01*
X124747178Y-87280309D02*
X124747178Y-87226434D01*
X124747178Y-87226434D02*
X124720240Y-87091747D01*
X124720240Y-87091747D02*
X124639428Y-86957060D01*
X124639428Y-86957060D02*
X124423929Y-86741561D01*
X124423929Y-86741561D02*
X124343117Y-86714624D01*
X124343117Y-86714624D02*
X124289242Y-86714624D01*
X124289242Y-86714624D02*
X124208430Y-86741561D01*
X124208430Y-86741561D02*
X124100680Y-86849311D01*
X124100680Y-86849311D02*
X124073743Y-86930123D01*
X124073743Y-86930123D02*
X124073743Y-86983998D01*
X124073743Y-86983998D02*
X124100680Y-87064810D01*
X124100680Y-87064810D02*
X124235367Y-87199497D01*
X124235367Y-87199497D02*
X124316179Y-87226434D01*
X124316179Y-87226434D02*
X124370054Y-87226434D01*
X124370054Y-87226434D02*
X124450866Y-87199497D01*
X124450866Y-87199497D02*
X124558616Y-87091747D01*
X124558616Y-87091747D02*
X124585553Y-87010935D01*
X124585553Y-87010935D02*
X124585553Y-86957060D01*
X124585553Y-86957060D02*
X124558616Y-86876248D01*
X122495749Y-53040242D02*
X123249996Y-53417366D01*
X123249996Y-53417366D02*
X122872873Y-52663118D01*
X123573245Y-53040242D02*
X123680995Y-52986367D01*
X123680995Y-52986367D02*
X123815682Y-52851680D01*
X123815682Y-52851680D02*
X123842619Y-52770868D01*
X123842619Y-52770868D02*
X123842619Y-52716993D01*
X123842619Y-52716993D02*
X123815682Y-52636181D01*
X123815682Y-52636181D02*
X123761807Y-52582306D01*
X123761807Y-52582306D02*
X123680995Y-52555369D01*
X123680995Y-52555369D02*
X123627120Y-52555369D01*
X123627120Y-52555369D02*
X123546308Y-52582306D01*
X123546308Y-52582306D02*
X123411621Y-52663118D01*
X123411621Y-52663118D02*
X123330808Y-52690056D01*
X123330808Y-52690056D02*
X123276934Y-52690056D01*
X123276934Y-52690056D02*
X123196121Y-52663118D01*
X123196121Y-52663118D02*
X123142247Y-52609244D01*
X123142247Y-52609244D02*
X123115309Y-52528431D01*
X123115309Y-52528431D02*
X123115309Y-52474557D01*
X123115309Y-52474557D02*
X123142247Y-52393744D01*
X123142247Y-52393744D02*
X123276934Y-52259057D01*
X123276934Y-52259057D02*
X123384683Y-52205183D01*
X124004244Y-52124370D02*
X124273618Y-52393744D01*
X123519370Y-52016621D02*
X124004244Y-52124370D01*
X124004244Y-52124370D02*
X123896494Y-51639497D01*
X124596866Y-52016621D02*
X124704616Y-51962746D01*
X124704616Y-51962746D02*
X124839303Y-51828059D01*
X124839303Y-51828059D02*
X124866240Y-51747247D01*
X124866240Y-51747247D02*
X124866240Y-51693372D01*
X124866240Y-51693372D02*
X124839303Y-51612560D01*
X124839303Y-51612560D02*
X124785428Y-51558685D01*
X124785428Y-51558685D02*
X124704616Y-51531748D01*
X124704616Y-51531748D02*
X124650741Y-51531748D01*
X124650741Y-51531748D02*
X124569929Y-51558685D01*
X124569929Y-51558685D02*
X124435242Y-51639497D01*
X124435242Y-51639497D02*
X124354430Y-51666435D01*
X124354430Y-51666435D02*
X124300555Y-51666435D01*
X124300555Y-51666435D02*
X124219743Y-51639497D01*
X124219743Y-51639497D02*
X124165868Y-51585622D01*
X124165868Y-51585622D02*
X124138930Y-51504810D01*
X124138930Y-51504810D02*
X124138930Y-51450935D01*
X124138930Y-51450935D02*
X124165868Y-51370123D01*
X124165868Y-51370123D02*
X124300555Y-51235436D01*
X124300555Y-51235436D02*
X124408304Y-51181561D01*
X122528406Y-50497585D02*
X123282653Y-50874709D01*
X123282653Y-50874709D02*
X122905529Y-50120462D01*
X123552027Y-50012712D02*
X123659776Y-49958838D01*
X123659776Y-49958838D02*
X123713651Y-49958838D01*
X123713651Y-49958838D02*
X123794463Y-49985775D01*
X123794463Y-49985775D02*
X123875276Y-50066587D01*
X123875276Y-50066587D02*
X123902213Y-50147399D01*
X123902213Y-50147399D02*
X123902213Y-50201274D01*
X123902213Y-50201274D02*
X123875276Y-50282086D01*
X123875276Y-50282086D02*
X123659776Y-50497586D01*
X123659776Y-50497586D02*
X123094091Y-49931900D01*
X123094091Y-49931900D02*
X123282653Y-49743338D01*
X123282653Y-49743338D02*
X123363465Y-49716401D01*
X123363465Y-49716401D02*
X123417340Y-49716401D01*
X123417340Y-49716401D02*
X123498152Y-49743338D01*
X123498152Y-49743338D02*
X123552027Y-49797213D01*
X123552027Y-49797213D02*
X123578964Y-49878025D01*
X123578964Y-49878025D02*
X123578964Y-49931900D01*
X123578964Y-49931900D02*
X123552027Y-50012712D01*
X123552027Y-50012712D02*
X123363465Y-50201274D01*
X123659776Y-49366215D02*
X124117712Y-49824151D01*
X124117712Y-49824151D02*
X124198524Y-49851088D01*
X124198524Y-49851088D02*
X124252399Y-49851088D01*
X124252399Y-49851088D02*
X124333211Y-49824151D01*
X124333211Y-49824151D02*
X124440961Y-49716401D01*
X124440961Y-49716401D02*
X124467898Y-49635589D01*
X124467898Y-49635589D02*
X124467898Y-49581714D01*
X124467898Y-49581714D02*
X124440961Y-49500902D01*
X124440961Y-49500902D02*
X123983025Y-49042966D01*
X124764210Y-49339277D02*
X124871959Y-49285403D01*
X124871959Y-49285403D02*
X125006646Y-49150716D01*
X125006646Y-49150716D02*
X125033584Y-49069903D01*
X125033584Y-49069903D02*
X125033584Y-49016029D01*
X125033584Y-49016029D02*
X125006646Y-48935216D01*
X125006646Y-48935216D02*
X124952771Y-48881342D01*
X124952771Y-48881342D02*
X124871959Y-48854404D01*
X124871959Y-48854404D02*
X124818084Y-48854404D01*
X124818084Y-48854404D02*
X124737272Y-48881342D01*
X124737272Y-48881342D02*
X124602585Y-48962154D01*
X124602585Y-48962154D02*
X124521773Y-48989091D01*
X124521773Y-48989091D02*
X124467898Y-48989091D01*
X124467898Y-48989091D02*
X124387086Y-48962154D01*
X124387086Y-48962154D02*
X124333211Y-48908279D01*
X124333211Y-48908279D02*
X124306274Y-48827467D01*
X124306274Y-48827467D02*
X124306274Y-48773592D01*
X124306274Y-48773592D02*
X124333211Y-48692780D01*
X124333211Y-48692780D02*
X124467898Y-48558093D01*
X124467898Y-48558093D02*
X124575648Y-48504218D01*
X97088372Y-65201494D02*
X97007560Y-65228431D01*
X97007560Y-65228431D02*
X96926748Y-65309243D01*
X96926748Y-65309243D02*
X96872873Y-65416993D01*
X96872873Y-65416993D02*
X96872873Y-65524742D01*
X96872873Y-65524742D02*
X96899810Y-65605555D01*
X96899810Y-65605555D02*
X96980623Y-65740242D01*
X96980623Y-65740242D02*
X97061435Y-65821054D01*
X97061435Y-65821054D02*
X97196122Y-65901866D01*
X97196122Y-65901866D02*
X97276934Y-65928803D01*
X97276934Y-65928803D02*
X97384684Y-65928803D01*
X97384684Y-65928803D02*
X97492433Y-65874929D01*
X97492433Y-65874929D02*
X97546308Y-65821054D01*
X97546308Y-65821054D02*
X97600183Y-65713304D01*
X97600183Y-65713304D02*
X97600183Y-65659429D01*
X97600183Y-65659429D02*
X97411621Y-65470868D01*
X97411621Y-65470868D02*
X97303871Y-65578617D01*
X97896494Y-65470868D02*
X97330809Y-64905182D01*
X97330809Y-64905182D02*
X97546308Y-64689683D01*
X97546308Y-64689683D02*
X97627120Y-64662746D01*
X97627120Y-64662746D02*
X97680995Y-64662746D01*
X97680995Y-64662746D02*
X97761807Y-64689683D01*
X97761807Y-64689683D02*
X97842619Y-64770495D01*
X97842619Y-64770495D02*
X97869557Y-64851307D01*
X97869557Y-64851307D02*
X97869557Y-64905182D01*
X97869557Y-64905182D02*
X97842619Y-64985994D01*
X97842619Y-64985994D02*
X97627120Y-65201494D01*
X98165868Y-64070123D02*
X97896494Y-64339497D01*
X97896494Y-64339497D02*
X98138931Y-64635808D01*
X98138931Y-64635808D02*
X98138931Y-64581933D01*
X98138931Y-64581933D02*
X98165868Y-64501121D01*
X98165868Y-64501121D02*
X98300555Y-64366434D01*
X98300555Y-64366434D02*
X98381367Y-64339497D01*
X98381367Y-64339497D02*
X98435242Y-64339497D01*
X98435242Y-64339497D02*
X98516054Y-64366434D01*
X98516054Y-64366434D02*
X98650741Y-64501121D01*
X98650741Y-64501121D02*
X98677679Y-64581933D01*
X98677679Y-64581933D02*
X98677679Y-64635808D01*
X98677679Y-64635808D02*
X98650741Y-64716620D01*
X98650741Y-64716620D02*
X98516054Y-64851307D01*
X98516054Y-64851307D02*
X98435242Y-64878245D01*
X98435242Y-64878245D02*
X98381367Y-64878245D01*
X96988372Y-52491494D02*
X96907560Y-52518431D01*
X96907560Y-52518431D02*
X96826748Y-52599243D01*
X96826748Y-52599243D02*
X96772873Y-52706993D01*
X96772873Y-52706993D02*
X96772873Y-52814742D01*
X96772873Y-52814742D02*
X96799810Y-52895555D01*
X96799810Y-52895555D02*
X96880623Y-53030242D01*
X96880623Y-53030242D02*
X96961435Y-53111054D01*
X96961435Y-53111054D02*
X97096122Y-53191866D01*
X97096122Y-53191866D02*
X97176934Y-53218803D01*
X97176934Y-53218803D02*
X97284684Y-53218803D01*
X97284684Y-53218803D02*
X97392433Y-53164929D01*
X97392433Y-53164929D02*
X97446308Y-53111054D01*
X97446308Y-53111054D02*
X97500183Y-53003304D01*
X97500183Y-53003304D02*
X97500183Y-52949429D01*
X97500183Y-52949429D02*
X97311621Y-52760868D01*
X97311621Y-52760868D02*
X97203871Y-52868617D01*
X97796494Y-52760868D02*
X97230809Y-52195182D01*
X97230809Y-52195182D02*
X97446308Y-51979683D01*
X97446308Y-51979683D02*
X97527120Y-51952746D01*
X97527120Y-51952746D02*
X97580995Y-51952746D01*
X97580995Y-51952746D02*
X97661807Y-51979683D01*
X97661807Y-51979683D02*
X97742619Y-52060495D01*
X97742619Y-52060495D02*
X97769557Y-52141307D01*
X97769557Y-52141307D02*
X97769557Y-52195182D01*
X97769557Y-52195182D02*
X97742619Y-52275994D01*
X97742619Y-52275994D02*
X97527120Y-52491494D01*
X98658491Y-51898871D02*
X98335242Y-52222120D01*
X98496867Y-52060495D02*
X97931181Y-51494810D01*
X97931181Y-51494810D02*
X97958119Y-51629497D01*
X97958119Y-51629497D02*
X97958119Y-51737246D01*
X97958119Y-51737246D02*
X97931181Y-51818059D01*
X122497407Y-57928584D02*
X122847593Y-57578398D01*
X122847593Y-57578398D02*
X122874531Y-57982459D01*
X122874531Y-57982459D02*
X122955343Y-57901646D01*
X122955343Y-57901646D02*
X123036155Y-57874709D01*
X123036155Y-57874709D02*
X123090030Y-57874709D01*
X123090030Y-57874709D02*
X123170842Y-57901646D01*
X123170842Y-57901646D02*
X123305529Y-58036333D01*
X123305529Y-58036333D02*
X123332467Y-58117146D01*
X123332467Y-58117146D02*
X123332467Y-58171020D01*
X123332467Y-58171020D02*
X123305529Y-58251833D01*
X123305529Y-58251833D02*
X123143905Y-58413457D01*
X123143905Y-58413457D02*
X123063093Y-58440394D01*
X123063093Y-58440394D02*
X123009218Y-58440394D01*
X123009218Y-57416773D02*
X123763465Y-57793897D01*
X123763465Y-57793897D02*
X123386342Y-57039649D01*
X123521028Y-56904963D02*
X123871215Y-56554776D01*
X123871215Y-56554776D02*
X123898152Y-56958837D01*
X123898152Y-56958837D02*
X123978964Y-56878025D01*
X123978964Y-56878025D02*
X124059776Y-56851088D01*
X124059776Y-56851088D02*
X124113651Y-56851088D01*
X124113651Y-56851088D02*
X124194464Y-56878025D01*
X124194464Y-56878025D02*
X124329151Y-57012712D01*
X124329151Y-57012712D02*
X124356088Y-57093524D01*
X124356088Y-57093524D02*
X124356088Y-57147399D01*
X124356088Y-57147399D02*
X124329151Y-57228211D01*
X124329151Y-57228211D02*
X124167526Y-57389836D01*
X124167526Y-57389836D02*
X124086714Y-57416773D01*
X124086714Y-57416773D02*
X124032839Y-57416773D01*
X124598525Y-57066587D02*
X125029523Y-56635588D01*
X124814024Y-56150715D02*
X125002586Y-55962153D01*
X125379709Y-56177652D02*
X125110335Y-56447026D01*
X125110335Y-56447026D02*
X124544650Y-55881341D01*
X124544650Y-55881341D02*
X124814024Y-55611967D01*
X125622146Y-55935215D02*
X125056461Y-55369530D01*
X125056461Y-55369530D02*
X125945395Y-55611967D01*
X125945395Y-55611967D02*
X125379710Y-55046281D01*
X122661435Y-55068431D02*
X122580623Y-55095368D01*
X122580623Y-55095368D02*
X122499811Y-55176180D01*
X122499811Y-55176180D02*
X122445936Y-55283930D01*
X122445936Y-55283930D02*
X122445936Y-55391680D01*
X122445936Y-55391680D02*
X122472873Y-55472492D01*
X122472873Y-55472492D02*
X122553685Y-55607179D01*
X122553685Y-55607179D02*
X122634498Y-55687991D01*
X122634498Y-55687991D02*
X122769185Y-55768803D01*
X122769185Y-55768803D02*
X122849997Y-55795741D01*
X122849997Y-55795741D02*
X122957746Y-55795741D01*
X122957746Y-55795741D02*
X123065496Y-55741866D01*
X123065496Y-55741866D02*
X123119371Y-55687991D01*
X123119371Y-55687991D02*
X123173246Y-55580241D01*
X123173246Y-55580241D02*
X123173246Y-55526367D01*
X123173246Y-55526367D02*
X122984684Y-55337805D01*
X122984684Y-55337805D02*
X122876934Y-55445554D01*
X123469557Y-55337805D02*
X122903872Y-54772119D01*
X122903872Y-54772119D02*
X123792806Y-55014556D01*
X123792806Y-55014556D02*
X123227120Y-54448871D01*
X124062180Y-54745182D02*
X123496494Y-54179497D01*
X123496494Y-54179497D02*
X123631181Y-54044810D01*
X123631181Y-54044810D02*
X123738931Y-53990935D01*
X123738931Y-53990935D02*
X123846680Y-53990935D01*
X123846680Y-53990935D02*
X123927493Y-54017872D01*
X123927493Y-54017872D02*
X124062180Y-54098685D01*
X124062180Y-54098685D02*
X124142992Y-54179497D01*
X124142992Y-54179497D02*
X124223804Y-54314184D01*
X124223804Y-54314184D02*
X124250741Y-54394996D01*
X124250741Y-54394996D02*
X124250741Y-54502746D01*
X124250741Y-54502746D02*
X124196867Y-54610495D01*
X124196867Y-54610495D02*
X124062180Y-54745182D01*
X96564998Y-83250868D02*
X96484185Y-83277805D01*
X96484185Y-83277805D02*
X96403373Y-83358618D01*
X96403373Y-83358618D02*
X96349498Y-83466367D01*
X96349498Y-83466367D02*
X96349498Y-83574117D01*
X96349498Y-83574117D02*
X96376436Y-83654929D01*
X96376436Y-83654929D02*
X96457248Y-83789616D01*
X96457248Y-83789616D02*
X96538060Y-83870428D01*
X96538060Y-83870428D02*
X96672747Y-83951241D01*
X96672747Y-83951241D02*
X96753560Y-83978178D01*
X96753560Y-83978178D02*
X96861309Y-83978178D01*
X96861309Y-83978178D02*
X96969059Y-83924303D01*
X96969059Y-83924303D02*
X97022934Y-83870428D01*
X97022934Y-83870428D02*
X97076808Y-83762679D01*
X97076808Y-83762679D02*
X97076808Y-83708804D01*
X97076808Y-83708804D02*
X96888247Y-83520242D01*
X96888247Y-83520242D02*
X96780497Y-83627992D01*
X97373120Y-83520242D02*
X96807434Y-82954557D01*
X96807434Y-82954557D02*
X97022934Y-82739057D01*
X97022934Y-82739057D02*
X97103746Y-82712120D01*
X97103746Y-82712120D02*
X97157621Y-82712120D01*
X97157621Y-82712120D02*
X97238433Y-82739057D01*
X97238433Y-82739057D02*
X97319245Y-82819870D01*
X97319245Y-82819870D02*
X97346182Y-82900682D01*
X97346182Y-82900682D02*
X97346182Y-82954557D01*
X97346182Y-82954557D02*
X97319245Y-83035369D01*
X97319245Y-83035369D02*
X97103746Y-83250868D01*
X98235117Y-82658245D02*
X97911868Y-82981494D01*
X98073492Y-82819870D02*
X97507807Y-82254184D01*
X97507807Y-82254184D02*
X97534744Y-82388871D01*
X97534744Y-82388871D02*
X97534744Y-82496621D01*
X97534744Y-82496621D02*
X97507807Y-82577433D01*
X98019618Y-81742373D02*
X98073492Y-81688499D01*
X98073492Y-81688499D02*
X98154305Y-81661561D01*
X98154305Y-81661561D02*
X98208179Y-81661561D01*
X98208179Y-81661561D02*
X98288992Y-81688499D01*
X98288992Y-81688499D02*
X98423679Y-81769311D01*
X98423679Y-81769311D02*
X98558366Y-81903998D01*
X98558366Y-81903998D02*
X98639178Y-82038685D01*
X98639178Y-82038685D02*
X98666115Y-82119497D01*
X98666115Y-82119497D02*
X98666115Y-82173372D01*
X98666115Y-82173372D02*
X98639178Y-82254184D01*
X98639178Y-82254184D02*
X98585303Y-82308059D01*
X98585303Y-82308059D02*
X98504491Y-82334996D01*
X98504491Y-82334996D02*
X98450616Y-82334996D01*
X98450616Y-82334996D02*
X98369804Y-82308059D01*
X98369804Y-82308059D02*
X98235117Y-82227247D01*
X98235117Y-82227247D02*
X98100430Y-82092560D01*
X98100430Y-82092560D02*
X98019618Y-81957873D01*
X98019618Y-81957873D02*
X97992680Y-81877060D01*
X97992680Y-81877060D02*
X97992680Y-81823186D01*
X97992680Y-81823186D02*
X98019618Y-81742373D01*
X97088372Y-77901494D02*
X97007560Y-77928431D01*
X97007560Y-77928431D02*
X96926748Y-78009243D01*
X96926748Y-78009243D02*
X96872873Y-78116993D01*
X96872873Y-78116993D02*
X96872873Y-78224742D01*
X96872873Y-78224742D02*
X96899810Y-78305555D01*
X96899810Y-78305555D02*
X96980623Y-78440242D01*
X96980623Y-78440242D02*
X97061435Y-78521054D01*
X97061435Y-78521054D02*
X97196122Y-78601866D01*
X97196122Y-78601866D02*
X97276934Y-78628803D01*
X97276934Y-78628803D02*
X97384684Y-78628803D01*
X97384684Y-78628803D02*
X97492433Y-78574929D01*
X97492433Y-78574929D02*
X97546308Y-78521054D01*
X97546308Y-78521054D02*
X97600183Y-78413304D01*
X97600183Y-78413304D02*
X97600183Y-78359429D01*
X97600183Y-78359429D02*
X97411621Y-78170868D01*
X97411621Y-78170868D02*
X97303871Y-78278617D01*
X97896494Y-78170868D02*
X97330809Y-77605182D01*
X97330809Y-77605182D02*
X97546308Y-77389683D01*
X97546308Y-77389683D02*
X97627120Y-77362746D01*
X97627120Y-77362746D02*
X97680995Y-77362746D01*
X97680995Y-77362746D02*
X97761807Y-77389683D01*
X97761807Y-77389683D02*
X97842619Y-77470495D01*
X97842619Y-77470495D02*
X97869557Y-77551307D01*
X97869557Y-77551307D02*
X97869557Y-77605182D01*
X97869557Y-77605182D02*
X97842619Y-77685994D01*
X97842619Y-77685994D02*
X97627120Y-77901494D01*
X98489117Y-77578245D02*
X98596867Y-77470495D01*
X98596867Y-77470495D02*
X98623804Y-77389683D01*
X98623804Y-77389683D02*
X98623804Y-77335808D01*
X98623804Y-77335808D02*
X98596867Y-77201121D01*
X98596867Y-77201121D02*
X98516054Y-77066434D01*
X98516054Y-77066434D02*
X98300555Y-76850935D01*
X98300555Y-76850935D02*
X98219743Y-76823998D01*
X98219743Y-76823998D02*
X98165868Y-76823998D01*
X98165868Y-76823998D02*
X98085056Y-76850935D01*
X98085056Y-76850935D02*
X97977306Y-76958685D01*
X97977306Y-76958685D02*
X97950369Y-77039497D01*
X97950369Y-77039497D02*
X97950369Y-77093372D01*
X97950369Y-77093372D02*
X97977306Y-77174184D01*
X97977306Y-77174184D02*
X98111993Y-77308871D01*
X98111993Y-77308871D02*
X98192806Y-77335808D01*
X98192806Y-77335808D02*
X98246680Y-77335808D01*
X98246680Y-77335808D02*
X98327493Y-77308871D01*
X98327493Y-77308871D02*
X98435242Y-77201121D01*
X98435242Y-77201121D02*
X98462180Y-77120309D01*
X98462180Y-77120309D02*
X98462180Y-77066434D01*
X98462180Y-77066434D02*
X98435242Y-76985622D01*
X122726873Y-68711240D02*
X122996247Y-68441866D01*
X122834623Y-68926739D02*
X122457499Y-68172492D01*
X122457499Y-68172492D02*
X123211746Y-68549615D01*
X123157871Y-67525994D02*
X123077059Y-67552932D01*
X123077059Y-67552932D02*
X122996247Y-67633744D01*
X122996247Y-67633744D02*
X122942372Y-67741494D01*
X122942372Y-67741494D02*
X122942372Y-67849243D01*
X122942372Y-67849243D02*
X122969310Y-67930055D01*
X122969310Y-67930055D02*
X123050122Y-68064742D01*
X123050122Y-68064742D02*
X123130934Y-68145555D01*
X123130934Y-68145555D02*
X123265621Y-68226367D01*
X123265621Y-68226367D02*
X123346433Y-68253304D01*
X123346433Y-68253304D02*
X123454183Y-68253304D01*
X123454183Y-68253304D02*
X123561932Y-68199429D01*
X123561932Y-68199429D02*
X123615807Y-68145555D01*
X123615807Y-68145555D02*
X123669682Y-68037805D01*
X123669682Y-68037805D02*
X123669682Y-67983930D01*
X123669682Y-67983930D02*
X123481120Y-67795368D01*
X123481120Y-67795368D02*
X123373371Y-67903118D01*
X123965993Y-67795368D02*
X123400308Y-67229683D01*
X123400308Y-67229683D02*
X124289242Y-67472120D01*
X124289242Y-67472120D02*
X123723557Y-66906434D01*
X124558616Y-67202746D02*
X123992931Y-66637060D01*
X123992931Y-66637060D02*
X124127618Y-66502373D01*
X124127618Y-66502373D02*
X124235367Y-66448498D01*
X124235367Y-66448498D02*
X124343117Y-66448498D01*
X124343117Y-66448498D02*
X124423929Y-66475436D01*
X124423929Y-66475436D02*
X124558616Y-66556248D01*
X124558616Y-66556248D02*
X124639428Y-66637060D01*
X124639428Y-66637060D02*
X124720241Y-66771747D01*
X124720241Y-66771747D02*
X124747178Y-66852560D01*
X124747178Y-66852560D02*
X124747178Y-66960309D01*
X124747178Y-66960309D02*
X124693303Y-67068059D01*
X124693303Y-67068059D02*
X124558616Y-67202746D01*
X122672998Y-90870868D02*
X122592185Y-90897805D01*
X122592185Y-90897805D02*
X122511373Y-90978618D01*
X122511373Y-90978618D02*
X122457498Y-91086367D01*
X122457498Y-91086367D02*
X122457498Y-91194117D01*
X122457498Y-91194117D02*
X122484436Y-91274929D01*
X122484436Y-91274929D02*
X122565248Y-91409616D01*
X122565248Y-91409616D02*
X122646060Y-91490428D01*
X122646060Y-91490428D02*
X122780747Y-91571241D01*
X122780747Y-91571241D02*
X122861560Y-91598178D01*
X122861560Y-91598178D02*
X122969309Y-91598178D01*
X122969309Y-91598178D02*
X123077059Y-91544303D01*
X123077059Y-91544303D02*
X123130934Y-91490428D01*
X123130934Y-91490428D02*
X123184808Y-91382679D01*
X123184808Y-91382679D02*
X123184808Y-91328804D01*
X123184808Y-91328804D02*
X122996247Y-91140242D01*
X122996247Y-91140242D02*
X122888497Y-91247992D01*
X123481120Y-91140242D02*
X122915434Y-90574557D01*
X122915434Y-90574557D02*
X123130934Y-90359057D01*
X123130934Y-90359057D02*
X123211746Y-90332120D01*
X123211746Y-90332120D02*
X123265621Y-90332120D01*
X123265621Y-90332120D02*
X123346433Y-90359057D01*
X123346433Y-90359057D02*
X123427245Y-90439870D01*
X123427245Y-90439870D02*
X123454182Y-90520682D01*
X123454182Y-90520682D02*
X123454182Y-90574557D01*
X123454182Y-90574557D02*
X123427245Y-90655369D01*
X123427245Y-90655369D02*
X123211746Y-90870868D01*
X124343117Y-90278245D02*
X124019868Y-90601494D01*
X124181492Y-90439870D02*
X123615807Y-89874184D01*
X123615807Y-89874184D02*
X123642744Y-90008871D01*
X123642744Y-90008871D02*
X123642744Y-90116621D01*
X123642744Y-90116621D02*
X123615807Y-90197433D01*
X124343117Y-89631747D02*
X124262305Y-89658685D01*
X124262305Y-89658685D02*
X124208430Y-89658685D01*
X124208430Y-89658685D02*
X124127618Y-89631747D01*
X124127618Y-89631747D02*
X124100680Y-89604810D01*
X124100680Y-89604810D02*
X124073743Y-89523998D01*
X124073743Y-89523998D02*
X124073743Y-89470123D01*
X124073743Y-89470123D02*
X124100680Y-89389311D01*
X124100680Y-89389311D02*
X124208430Y-89281561D01*
X124208430Y-89281561D02*
X124289242Y-89254624D01*
X124289242Y-89254624D02*
X124343117Y-89254624D01*
X124343117Y-89254624D02*
X124423929Y-89281561D01*
X124423929Y-89281561D02*
X124450866Y-89308499D01*
X124450866Y-89308499D02*
X124477804Y-89389311D01*
X124477804Y-89389311D02*
X124477804Y-89443186D01*
X124477804Y-89443186D02*
X124450866Y-89523998D01*
X124450866Y-89523998D02*
X124343117Y-89631747D01*
X124343117Y-89631747D02*
X124316179Y-89712560D01*
X124316179Y-89712560D02*
X124316179Y-89766434D01*
X124316179Y-89766434D02*
X124343117Y-89847247D01*
X124343117Y-89847247D02*
X124450866Y-89954996D01*
X124450866Y-89954996D02*
X124531679Y-89981934D01*
X124531679Y-89981934D02*
X124585553Y-89981934D01*
X124585553Y-89981934D02*
X124666366Y-89954996D01*
X124666366Y-89954996D02*
X124774115Y-89847247D01*
X124774115Y-89847247D02*
X124801053Y-89766434D01*
X124801053Y-89766434D02*
X124801053Y-89712560D01*
X124801053Y-89712560D02*
X124774115Y-89631747D01*
X124774115Y-89631747D02*
X124666366Y-89523998D01*
X124666366Y-89523998D02*
X124585553Y-89497060D01*
X124585553Y-89497060D02*
X124531679Y-89497060D01*
X124531679Y-89497060D02*
X124450866Y-89523998D01*
X123413651Y-75913710D02*
X122955716Y-75832898D01*
X123090403Y-76236959D02*
X122524717Y-75671274D01*
X122524717Y-75671274D02*
X122740216Y-75455775D01*
X122740216Y-75455775D02*
X122821029Y-75428837D01*
X122821029Y-75428837D02*
X122874903Y-75428837D01*
X122874903Y-75428837D02*
X122955716Y-75455775D01*
X122955716Y-75455775D02*
X123036528Y-75536587D01*
X123036528Y-75536587D02*
X123063465Y-75617399D01*
X123063465Y-75617399D02*
X123063465Y-75671274D01*
X123063465Y-75671274D02*
X123036528Y-75752086D01*
X123036528Y-75752086D02*
X122821029Y-75967585D01*
X123090403Y-75105588D02*
X123548338Y-75563524D01*
X123548338Y-75563524D02*
X123629151Y-75590462D01*
X123629151Y-75590462D02*
X123683025Y-75590462D01*
X123683025Y-75590462D02*
X123763838Y-75563524D01*
X123763838Y-75563524D02*
X123871587Y-75455775D01*
X123871587Y-75455775D02*
X123898525Y-75374962D01*
X123898525Y-75374962D02*
X123898525Y-75321088D01*
X123898525Y-75321088D02*
X123871587Y-75240275D01*
X123871587Y-75240275D02*
X123413651Y-74782340D01*
X124248711Y-75078651D02*
X123683025Y-74512966D01*
X123683025Y-74512966D02*
X124571959Y-74755402D01*
X124571959Y-74755402D02*
X124006274Y-74189717D01*
X96418998Y-85790868D02*
X96338185Y-85817805D01*
X96338185Y-85817805D02*
X96257373Y-85898618D01*
X96257373Y-85898618D02*
X96203498Y-86006367D01*
X96203498Y-86006367D02*
X96203498Y-86114117D01*
X96203498Y-86114117D02*
X96230436Y-86194929D01*
X96230436Y-86194929D02*
X96311248Y-86329616D01*
X96311248Y-86329616D02*
X96392060Y-86410428D01*
X96392060Y-86410428D02*
X96526747Y-86491241D01*
X96526747Y-86491241D02*
X96607560Y-86518178D01*
X96607560Y-86518178D02*
X96715309Y-86518178D01*
X96715309Y-86518178D02*
X96823059Y-86464303D01*
X96823059Y-86464303D02*
X96876934Y-86410428D01*
X96876934Y-86410428D02*
X96930808Y-86302679D01*
X96930808Y-86302679D02*
X96930808Y-86248804D01*
X96930808Y-86248804D02*
X96742247Y-86060242D01*
X96742247Y-86060242D02*
X96634497Y-86167992D01*
X97227120Y-86060242D02*
X96661434Y-85494557D01*
X96661434Y-85494557D02*
X96876934Y-85279057D01*
X96876934Y-85279057D02*
X96957746Y-85252120D01*
X96957746Y-85252120D02*
X97011621Y-85252120D01*
X97011621Y-85252120D02*
X97092433Y-85279057D01*
X97092433Y-85279057D02*
X97173245Y-85359870D01*
X97173245Y-85359870D02*
X97200182Y-85440682D01*
X97200182Y-85440682D02*
X97200182Y-85494557D01*
X97200182Y-85494557D02*
X97173245Y-85575369D01*
X97173245Y-85575369D02*
X96957746Y-85790868D01*
X98089117Y-85198245D02*
X97765868Y-85521494D01*
X97927492Y-85359870D02*
X97361807Y-84794184D01*
X97361807Y-84794184D02*
X97388744Y-84928871D01*
X97388744Y-84928871D02*
X97388744Y-85036621D01*
X97388744Y-85036621D02*
X97361807Y-85117433D01*
X98627865Y-84659497D02*
X98304616Y-84982746D01*
X98466240Y-84821121D02*
X97900555Y-84255436D01*
X97900555Y-84255436D02*
X97927492Y-84390123D01*
X97927492Y-84390123D02*
X97927492Y-84497873D01*
X97927492Y-84497873D02*
X97900555Y-84578685D01*
X103065475Y-100494200D02*
X103179761Y-100532295D01*
X103179761Y-100532295D02*
X103370237Y-100532295D01*
X103370237Y-100532295D02*
X103446428Y-100494200D01*
X103446428Y-100494200D02*
X103484523Y-100456104D01*
X103484523Y-100456104D02*
X103522618Y-100379914D01*
X103522618Y-100379914D02*
X103522618Y-100303723D01*
X103522618Y-100303723D02*
X103484523Y-100227533D01*
X103484523Y-100227533D02*
X103446428Y-100189438D01*
X103446428Y-100189438D02*
X103370237Y-100151342D01*
X103370237Y-100151342D02*
X103217856Y-100113247D01*
X103217856Y-100113247D02*
X103141666Y-100075152D01*
X103141666Y-100075152D02*
X103103571Y-100037057D01*
X103103571Y-100037057D02*
X103065475Y-99960866D01*
X103065475Y-99960866D02*
X103065475Y-99884676D01*
X103065475Y-99884676D02*
X103103571Y-99808485D01*
X103103571Y-99808485D02*
X103141666Y-99770390D01*
X103141666Y-99770390D02*
X103217856Y-99732295D01*
X103217856Y-99732295D02*
X103408333Y-99732295D01*
X103408333Y-99732295D02*
X103522618Y-99770390D01*
X103789285Y-99732295D02*
X103979761Y-100532295D01*
X103979761Y-100532295D02*
X104132142Y-99960866D01*
X104132142Y-99960866D02*
X104284523Y-100532295D01*
X104284523Y-100532295D02*
X104475000Y-99732295D01*
X105236905Y-100456104D02*
X105198809Y-100494200D01*
X105198809Y-100494200D02*
X105084524Y-100532295D01*
X105084524Y-100532295D02*
X105008333Y-100532295D01*
X105008333Y-100532295D02*
X104894047Y-100494200D01*
X104894047Y-100494200D02*
X104817857Y-100418009D01*
X104817857Y-100418009D02*
X104779762Y-100341819D01*
X104779762Y-100341819D02*
X104741666Y-100189438D01*
X104741666Y-100189438D02*
X104741666Y-100075152D01*
X104741666Y-100075152D02*
X104779762Y-99922771D01*
X104779762Y-99922771D02*
X104817857Y-99846580D01*
X104817857Y-99846580D02*
X104894047Y-99770390D01*
X104894047Y-99770390D02*
X105008333Y-99732295D01*
X105008333Y-99732295D02*
X105084524Y-99732295D01*
X105084524Y-99732295D02*
X105198809Y-99770390D01*
X105198809Y-99770390D02*
X105236905Y-99808485D01*
X105960714Y-100532295D02*
X105579762Y-100532295D01*
X105579762Y-100532295D02*
X105579762Y-99732295D01*
X106227381Y-100532295D02*
X106227381Y-99732295D01*
X106684524Y-100532295D02*
X106341666Y-100075152D01*
X106684524Y-99732295D02*
X106227381Y-100189438D01*
X97061435Y-67768431D02*
X96980623Y-67795368D01*
X96980623Y-67795368D02*
X96899811Y-67876180D01*
X96899811Y-67876180D02*
X96845936Y-67983930D01*
X96845936Y-67983930D02*
X96845936Y-68091680D01*
X96845936Y-68091680D02*
X96872873Y-68172492D01*
X96872873Y-68172492D02*
X96953685Y-68307179D01*
X96953685Y-68307179D02*
X97034498Y-68387991D01*
X97034498Y-68387991D02*
X97169185Y-68468803D01*
X97169185Y-68468803D02*
X97249997Y-68495741D01*
X97249997Y-68495741D02*
X97357746Y-68495741D01*
X97357746Y-68495741D02*
X97465496Y-68441866D01*
X97465496Y-68441866D02*
X97519371Y-68387991D01*
X97519371Y-68387991D02*
X97573246Y-68280241D01*
X97573246Y-68280241D02*
X97573246Y-68226367D01*
X97573246Y-68226367D02*
X97384684Y-68037805D01*
X97384684Y-68037805D02*
X97276934Y-68145554D01*
X97869557Y-68037805D02*
X97303872Y-67472119D01*
X97303872Y-67472119D02*
X98192806Y-67714556D01*
X98192806Y-67714556D02*
X97627120Y-67148871D01*
X98462180Y-67445182D02*
X97896494Y-66879497D01*
X97896494Y-66879497D02*
X98031181Y-66744810D01*
X98031181Y-66744810D02*
X98138931Y-66690935D01*
X98138931Y-66690935D02*
X98246680Y-66690935D01*
X98246680Y-66690935D02*
X98327493Y-66717872D01*
X98327493Y-66717872D02*
X98462180Y-66798685D01*
X98462180Y-66798685D02*
X98542992Y-66879497D01*
X98542992Y-66879497D02*
X98623804Y-67014184D01*
X98623804Y-67014184D02*
X98650741Y-67094996D01*
X98650741Y-67094996D02*
X98650741Y-67202746D01*
X98650741Y-67202746D02*
X98596867Y-67310495D01*
X98596867Y-67310495D02*
X98462180Y-67445182D01*
X97088372Y-70281494D02*
X97007560Y-70308431D01*
X97007560Y-70308431D02*
X96926748Y-70389243D01*
X96926748Y-70389243D02*
X96872873Y-70496993D01*
X96872873Y-70496993D02*
X96872873Y-70604742D01*
X96872873Y-70604742D02*
X96899810Y-70685555D01*
X96899810Y-70685555D02*
X96980623Y-70820242D01*
X96980623Y-70820242D02*
X97061435Y-70901054D01*
X97061435Y-70901054D02*
X97196122Y-70981866D01*
X97196122Y-70981866D02*
X97276934Y-71008803D01*
X97276934Y-71008803D02*
X97384684Y-71008803D01*
X97384684Y-71008803D02*
X97492433Y-70954929D01*
X97492433Y-70954929D02*
X97546308Y-70901054D01*
X97546308Y-70901054D02*
X97600183Y-70793304D01*
X97600183Y-70793304D02*
X97600183Y-70739429D01*
X97600183Y-70739429D02*
X97411621Y-70550868D01*
X97411621Y-70550868D02*
X97303871Y-70658617D01*
X97896494Y-70550868D02*
X97330809Y-69985182D01*
X97330809Y-69985182D02*
X97546308Y-69769683D01*
X97546308Y-69769683D02*
X97627120Y-69742746D01*
X97627120Y-69742746D02*
X97680995Y-69742746D01*
X97680995Y-69742746D02*
X97761807Y-69769683D01*
X97761807Y-69769683D02*
X97842619Y-69850495D01*
X97842619Y-69850495D02*
X97869557Y-69931307D01*
X97869557Y-69931307D02*
X97869557Y-69985182D01*
X97869557Y-69985182D02*
X97842619Y-70065994D01*
X97842619Y-70065994D02*
X97627120Y-70281494D01*
X98138931Y-69177060D02*
X98031181Y-69284810D01*
X98031181Y-69284810D02*
X98004244Y-69365622D01*
X98004244Y-69365622D02*
X98004244Y-69419497D01*
X98004244Y-69419497D02*
X98031181Y-69554184D01*
X98031181Y-69554184D02*
X98111993Y-69688871D01*
X98111993Y-69688871D02*
X98327493Y-69904370D01*
X98327493Y-69904370D02*
X98408305Y-69931307D01*
X98408305Y-69931307D02*
X98462180Y-69931307D01*
X98462180Y-69931307D02*
X98542992Y-69904370D01*
X98542992Y-69904370D02*
X98650741Y-69796620D01*
X98650741Y-69796620D02*
X98677679Y-69715808D01*
X98677679Y-69715808D02*
X98677679Y-69661933D01*
X98677679Y-69661933D02*
X98650741Y-69581121D01*
X98650741Y-69581121D02*
X98516054Y-69446434D01*
X98516054Y-69446434D02*
X98435242Y-69419497D01*
X98435242Y-69419497D02*
X98381367Y-69419497D01*
X98381367Y-69419497D02*
X98300555Y-69446434D01*
X98300555Y-69446434D02*
X98192806Y-69554184D01*
X98192806Y-69554184D02*
X98165868Y-69634996D01*
X98165868Y-69634996D02*
X98165868Y-69688871D01*
X98165868Y-69688871D02*
X98192806Y-69769683D01*
X97088372Y-62661494D02*
X97007560Y-62688431D01*
X97007560Y-62688431D02*
X96926748Y-62769243D01*
X96926748Y-62769243D02*
X96872873Y-62876993D01*
X96872873Y-62876993D02*
X96872873Y-62984742D01*
X96872873Y-62984742D02*
X96899810Y-63065555D01*
X96899810Y-63065555D02*
X96980623Y-63200242D01*
X96980623Y-63200242D02*
X97061435Y-63281054D01*
X97061435Y-63281054D02*
X97196122Y-63361866D01*
X97196122Y-63361866D02*
X97276934Y-63388803D01*
X97276934Y-63388803D02*
X97384684Y-63388803D01*
X97384684Y-63388803D02*
X97492433Y-63334929D01*
X97492433Y-63334929D02*
X97546308Y-63281054D01*
X97546308Y-63281054D02*
X97600183Y-63173304D01*
X97600183Y-63173304D02*
X97600183Y-63119429D01*
X97600183Y-63119429D02*
X97411621Y-62930868D01*
X97411621Y-62930868D02*
X97303871Y-63038617D01*
X97896494Y-62930868D02*
X97330809Y-62365182D01*
X97330809Y-62365182D02*
X97546308Y-62149683D01*
X97546308Y-62149683D02*
X97627120Y-62122746D01*
X97627120Y-62122746D02*
X97680995Y-62122746D01*
X97680995Y-62122746D02*
X97761807Y-62149683D01*
X97761807Y-62149683D02*
X97842619Y-62230495D01*
X97842619Y-62230495D02*
X97869557Y-62311307D01*
X97869557Y-62311307D02*
X97869557Y-62365182D01*
X97869557Y-62365182D02*
X97842619Y-62445994D01*
X97842619Y-62445994D02*
X97627120Y-62661494D01*
X98327493Y-61745622D02*
X98704616Y-62122746D01*
X97977306Y-61664810D02*
X98246680Y-62203558D01*
X98246680Y-62203558D02*
X98596867Y-61853372D01*
X97061435Y-55068431D02*
X96980623Y-55095368D01*
X96980623Y-55095368D02*
X96899811Y-55176180D01*
X96899811Y-55176180D02*
X96845936Y-55283930D01*
X96845936Y-55283930D02*
X96845936Y-55391680D01*
X96845936Y-55391680D02*
X96872873Y-55472492D01*
X96872873Y-55472492D02*
X96953685Y-55607179D01*
X96953685Y-55607179D02*
X97034498Y-55687991D01*
X97034498Y-55687991D02*
X97169185Y-55768803D01*
X97169185Y-55768803D02*
X97249997Y-55795741D01*
X97249997Y-55795741D02*
X97357746Y-55795741D01*
X97357746Y-55795741D02*
X97465496Y-55741866D01*
X97465496Y-55741866D02*
X97519371Y-55687991D01*
X97519371Y-55687991D02*
X97573246Y-55580241D01*
X97573246Y-55580241D02*
X97573246Y-55526367D01*
X97573246Y-55526367D02*
X97384684Y-55337805D01*
X97384684Y-55337805D02*
X97276934Y-55445554D01*
X97869557Y-55337805D02*
X97303872Y-54772119D01*
X97303872Y-54772119D02*
X98192806Y-55014556D01*
X98192806Y-55014556D02*
X97627120Y-54448871D01*
X98462180Y-54745182D02*
X97896494Y-54179497D01*
X97896494Y-54179497D02*
X98031181Y-54044810D01*
X98031181Y-54044810D02*
X98138931Y-53990935D01*
X98138931Y-53990935D02*
X98246680Y-53990935D01*
X98246680Y-53990935D02*
X98327493Y-54017872D01*
X98327493Y-54017872D02*
X98462180Y-54098685D01*
X98462180Y-54098685D02*
X98542992Y-54179497D01*
X98542992Y-54179497D02*
X98623804Y-54314184D01*
X98623804Y-54314184D02*
X98650741Y-54394996D01*
X98650741Y-54394996D02*
X98650741Y-54502746D01*
X98650741Y-54502746D02*
X98596867Y-54610495D01*
X98596867Y-54610495D02*
X98462180Y-54745182D01*
X122672998Y-95950868D02*
X122592185Y-95977805D01*
X122592185Y-95977805D02*
X122511373Y-96058618D01*
X122511373Y-96058618D02*
X122457498Y-96166367D01*
X122457498Y-96166367D02*
X122457498Y-96274117D01*
X122457498Y-96274117D02*
X122484436Y-96354929D01*
X122484436Y-96354929D02*
X122565248Y-96489616D01*
X122565248Y-96489616D02*
X122646060Y-96570428D01*
X122646060Y-96570428D02*
X122780747Y-96651241D01*
X122780747Y-96651241D02*
X122861560Y-96678178D01*
X122861560Y-96678178D02*
X122969309Y-96678178D01*
X122969309Y-96678178D02*
X123077059Y-96624303D01*
X123077059Y-96624303D02*
X123130934Y-96570428D01*
X123130934Y-96570428D02*
X123184808Y-96462679D01*
X123184808Y-96462679D02*
X123184808Y-96408804D01*
X123184808Y-96408804D02*
X122996247Y-96220242D01*
X122996247Y-96220242D02*
X122888497Y-96327992D01*
X123481120Y-96220242D02*
X122915434Y-95654557D01*
X122915434Y-95654557D02*
X123130934Y-95439057D01*
X123130934Y-95439057D02*
X123211746Y-95412120D01*
X123211746Y-95412120D02*
X123265621Y-95412120D01*
X123265621Y-95412120D02*
X123346433Y-95439057D01*
X123346433Y-95439057D02*
X123427245Y-95519870D01*
X123427245Y-95519870D02*
X123454182Y-95600682D01*
X123454182Y-95600682D02*
X123454182Y-95654557D01*
X123454182Y-95654557D02*
X123427245Y-95735369D01*
X123427245Y-95735369D02*
X123211746Y-95950868D01*
X124343117Y-95358245D02*
X124019868Y-95681494D01*
X124181492Y-95519870D02*
X123615807Y-94954184D01*
X123615807Y-94954184D02*
X123642744Y-95088871D01*
X123642744Y-95088871D02*
X123642744Y-95196621D01*
X123642744Y-95196621D02*
X123615807Y-95277433D01*
X123965993Y-94603998D02*
X124343117Y-94226874D01*
X124343117Y-94226874D02*
X124666366Y-95034996D01*
X122672998Y-83260868D02*
X122592185Y-83287805D01*
X122592185Y-83287805D02*
X122511373Y-83368618D01*
X122511373Y-83368618D02*
X122457498Y-83476367D01*
X122457498Y-83476367D02*
X122457498Y-83584117D01*
X122457498Y-83584117D02*
X122484436Y-83664929D01*
X122484436Y-83664929D02*
X122565248Y-83799616D01*
X122565248Y-83799616D02*
X122646060Y-83880428D01*
X122646060Y-83880428D02*
X122780747Y-83961241D01*
X122780747Y-83961241D02*
X122861560Y-83988178D01*
X122861560Y-83988178D02*
X122969309Y-83988178D01*
X122969309Y-83988178D02*
X123077059Y-83934303D01*
X123077059Y-83934303D02*
X123130934Y-83880428D01*
X123130934Y-83880428D02*
X123184808Y-83772679D01*
X123184808Y-83772679D02*
X123184808Y-83718804D01*
X123184808Y-83718804D02*
X122996247Y-83530242D01*
X122996247Y-83530242D02*
X122888497Y-83637992D01*
X123481120Y-83530242D02*
X122915434Y-82964557D01*
X122915434Y-82964557D02*
X123130934Y-82749057D01*
X123130934Y-82749057D02*
X123211746Y-82722120D01*
X123211746Y-82722120D02*
X123265621Y-82722120D01*
X123265621Y-82722120D02*
X123346433Y-82749057D01*
X123346433Y-82749057D02*
X123427245Y-82829870D01*
X123427245Y-82829870D02*
X123454182Y-82910682D01*
X123454182Y-82910682D02*
X123454182Y-82964557D01*
X123454182Y-82964557D02*
X123427245Y-83045369D01*
X123427245Y-83045369D02*
X123211746Y-83260868D01*
X123508057Y-82479683D02*
X123508057Y-82425809D01*
X123508057Y-82425809D02*
X123534995Y-82344996D01*
X123534995Y-82344996D02*
X123669682Y-82210309D01*
X123669682Y-82210309D02*
X123750494Y-82183372D01*
X123750494Y-82183372D02*
X123804369Y-82183372D01*
X123804369Y-82183372D02*
X123885181Y-82210309D01*
X123885181Y-82210309D02*
X123939056Y-82264184D01*
X123939056Y-82264184D02*
X123992930Y-82371934D01*
X123992930Y-82371934D02*
X123992930Y-83018431D01*
X123992930Y-83018431D02*
X124343117Y-82668245D01*
X124881865Y-82129497D02*
X124558616Y-82452746D01*
X124720240Y-82291121D02*
X124154555Y-81725436D01*
X124154555Y-81725436D02*
X124181492Y-81860123D01*
X124181492Y-81860123D02*
X124181492Y-81967873D01*
X124181492Y-81967873D02*
X124154555Y-82048685D01*
X122672998Y-73090868D02*
X122592185Y-73117805D01*
X122592185Y-73117805D02*
X122511373Y-73198618D01*
X122511373Y-73198618D02*
X122457498Y-73306367D01*
X122457498Y-73306367D02*
X122457498Y-73414117D01*
X122457498Y-73414117D02*
X122484436Y-73494929D01*
X122484436Y-73494929D02*
X122565248Y-73629616D01*
X122565248Y-73629616D02*
X122646060Y-73710428D01*
X122646060Y-73710428D02*
X122780747Y-73791241D01*
X122780747Y-73791241D02*
X122861560Y-73818178D01*
X122861560Y-73818178D02*
X122969309Y-73818178D01*
X122969309Y-73818178D02*
X123077059Y-73764303D01*
X123077059Y-73764303D02*
X123130934Y-73710428D01*
X123130934Y-73710428D02*
X123184808Y-73602679D01*
X123184808Y-73602679D02*
X123184808Y-73548804D01*
X123184808Y-73548804D02*
X122996247Y-73360242D01*
X122996247Y-73360242D02*
X122888497Y-73467992D01*
X123481120Y-73360242D02*
X122915434Y-72794557D01*
X122915434Y-72794557D02*
X123130934Y-72579057D01*
X123130934Y-72579057D02*
X123211746Y-72552120D01*
X123211746Y-72552120D02*
X123265621Y-72552120D01*
X123265621Y-72552120D02*
X123346433Y-72579057D01*
X123346433Y-72579057D02*
X123427245Y-72659870D01*
X123427245Y-72659870D02*
X123454182Y-72740682D01*
X123454182Y-72740682D02*
X123454182Y-72794557D01*
X123454182Y-72794557D02*
X123427245Y-72875369D01*
X123427245Y-72875369D02*
X123211746Y-73090868D01*
X123508057Y-72309683D02*
X123508057Y-72255809D01*
X123508057Y-72255809D02*
X123534995Y-72174996D01*
X123534995Y-72174996D02*
X123669682Y-72040309D01*
X123669682Y-72040309D02*
X123750494Y-72013372D01*
X123750494Y-72013372D02*
X123804369Y-72013372D01*
X123804369Y-72013372D02*
X123885181Y-72040309D01*
X123885181Y-72040309D02*
X123939056Y-72094184D01*
X123939056Y-72094184D02*
X123992930Y-72201934D01*
X123992930Y-72201934D02*
X123992930Y-72848431D01*
X123992930Y-72848431D02*
X124343117Y-72498245D01*
X124262305Y-71447686D02*
X124154555Y-71555436D01*
X124154555Y-71555436D02*
X124127618Y-71636248D01*
X124127618Y-71636248D02*
X124127618Y-71690123D01*
X124127618Y-71690123D02*
X124154555Y-71824810D01*
X124154555Y-71824810D02*
X124235367Y-71959497D01*
X124235367Y-71959497D02*
X124450866Y-72174996D01*
X124450866Y-72174996D02*
X124531679Y-72201934D01*
X124531679Y-72201934D02*
X124585553Y-72201934D01*
X124585553Y-72201934D02*
X124666366Y-72174996D01*
X124666366Y-72174996D02*
X124774115Y-72067247D01*
X124774115Y-72067247D02*
X124801053Y-71986434D01*
X124801053Y-71986434D02*
X124801053Y-71932560D01*
X124801053Y-71932560D02*
X124774115Y-71851747D01*
X124774115Y-71851747D02*
X124639428Y-71717060D01*
X124639428Y-71717060D02*
X124558616Y-71690123D01*
X124558616Y-71690123D02*
X124504741Y-71690123D01*
X124504741Y-71690123D02*
X124423929Y-71717060D01*
X124423929Y-71717060D02*
X124316179Y-71824810D01*
X124316179Y-71824810D02*
X124289242Y-71905622D01*
X124289242Y-71905622D02*
X124289242Y-71959497D01*
X124289242Y-71959497D02*
X124316179Y-72040309D01*
X96564998Y-98490868D02*
X96484185Y-98517805D01*
X96484185Y-98517805D02*
X96403373Y-98598618D01*
X96403373Y-98598618D02*
X96349498Y-98706367D01*
X96349498Y-98706367D02*
X96349498Y-98814117D01*
X96349498Y-98814117D02*
X96376436Y-98894929D01*
X96376436Y-98894929D02*
X96457248Y-99029616D01*
X96457248Y-99029616D02*
X96538060Y-99110428D01*
X96538060Y-99110428D02*
X96672747Y-99191241D01*
X96672747Y-99191241D02*
X96753560Y-99218178D01*
X96753560Y-99218178D02*
X96861309Y-99218178D01*
X96861309Y-99218178D02*
X96969059Y-99164303D01*
X96969059Y-99164303D02*
X97022934Y-99110428D01*
X97022934Y-99110428D02*
X97076808Y-99002679D01*
X97076808Y-99002679D02*
X97076808Y-98948804D01*
X97076808Y-98948804D02*
X96888247Y-98760242D01*
X96888247Y-98760242D02*
X96780497Y-98867992D01*
X97373120Y-98760242D02*
X96807434Y-98194557D01*
X96807434Y-98194557D02*
X97022934Y-97979057D01*
X97022934Y-97979057D02*
X97103746Y-97952120D01*
X97103746Y-97952120D02*
X97157621Y-97952120D01*
X97157621Y-97952120D02*
X97238433Y-97979057D01*
X97238433Y-97979057D02*
X97319245Y-98059870D01*
X97319245Y-98059870D02*
X97346182Y-98140682D01*
X97346182Y-98140682D02*
X97346182Y-98194557D01*
X97346182Y-98194557D02*
X97319245Y-98275369D01*
X97319245Y-98275369D02*
X97103746Y-98490868D01*
X98235117Y-97898245D02*
X97911868Y-98221494D01*
X98073492Y-98059870D02*
X97507807Y-97494184D01*
X97507807Y-97494184D02*
X97534744Y-97628871D01*
X97534744Y-97628871D02*
X97534744Y-97736621D01*
X97534744Y-97736621D02*
X97507807Y-97817433D01*
X98181242Y-96820749D02*
X97911868Y-97090123D01*
X97911868Y-97090123D02*
X98154305Y-97386434D01*
X98154305Y-97386434D02*
X98154305Y-97332560D01*
X98154305Y-97332560D02*
X98181242Y-97251747D01*
X98181242Y-97251747D02*
X98315929Y-97117060D01*
X98315929Y-97117060D02*
X98396741Y-97090123D01*
X98396741Y-97090123D02*
X98450616Y-97090123D01*
X98450616Y-97090123D02*
X98531428Y-97117060D01*
X98531428Y-97117060D02*
X98666115Y-97251747D01*
X98666115Y-97251747D02*
X98693053Y-97332560D01*
X98693053Y-97332560D02*
X98693053Y-97386434D01*
X98693053Y-97386434D02*
X98666115Y-97467247D01*
X98666115Y-97467247D02*
X98531428Y-97601934D01*
X98531428Y-97601934D02*
X98450616Y-97628871D01*
X98450616Y-97628871D02*
X98396741Y-97628871D01*
X122672998Y-65216868D02*
X122592185Y-65243805D01*
X122592185Y-65243805D02*
X122511373Y-65324618D01*
X122511373Y-65324618D02*
X122457498Y-65432367D01*
X122457498Y-65432367D02*
X122457498Y-65540117D01*
X122457498Y-65540117D02*
X122484436Y-65620929D01*
X122484436Y-65620929D02*
X122565248Y-65755616D01*
X122565248Y-65755616D02*
X122646060Y-65836428D01*
X122646060Y-65836428D02*
X122780747Y-65917241D01*
X122780747Y-65917241D02*
X122861560Y-65944178D01*
X122861560Y-65944178D02*
X122969309Y-65944178D01*
X122969309Y-65944178D02*
X123077059Y-65890303D01*
X123077059Y-65890303D02*
X123130934Y-65836428D01*
X123130934Y-65836428D02*
X123184808Y-65728679D01*
X123184808Y-65728679D02*
X123184808Y-65674804D01*
X123184808Y-65674804D02*
X122996247Y-65486242D01*
X122996247Y-65486242D02*
X122888497Y-65593992D01*
X123481120Y-65486242D02*
X122915434Y-64920557D01*
X122915434Y-64920557D02*
X123130934Y-64705057D01*
X123130934Y-64705057D02*
X123211746Y-64678120D01*
X123211746Y-64678120D02*
X123265621Y-64678120D01*
X123265621Y-64678120D02*
X123346433Y-64705057D01*
X123346433Y-64705057D02*
X123427245Y-64785870D01*
X123427245Y-64785870D02*
X123454182Y-64866682D01*
X123454182Y-64866682D02*
X123454182Y-64920557D01*
X123454182Y-64920557D02*
X123427245Y-65001369D01*
X123427245Y-65001369D02*
X123211746Y-65216868D01*
X123508057Y-64435683D02*
X123508057Y-64381809D01*
X123508057Y-64381809D02*
X123534995Y-64300996D01*
X123534995Y-64300996D02*
X123669682Y-64166309D01*
X123669682Y-64166309D02*
X123750494Y-64139372D01*
X123750494Y-64139372D02*
X123804369Y-64139372D01*
X123804369Y-64139372D02*
X123885181Y-64166309D01*
X123885181Y-64166309D02*
X123939056Y-64220184D01*
X123939056Y-64220184D02*
X123992930Y-64327934D01*
X123992930Y-64327934D02*
X123992930Y-64974431D01*
X123992930Y-64974431D02*
X124343117Y-64624245D01*
X124343117Y-63977747D02*
X124262305Y-64004685D01*
X124262305Y-64004685D02*
X124208430Y-64004685D01*
X124208430Y-64004685D02*
X124127618Y-63977747D01*
X124127618Y-63977747D02*
X124100680Y-63950810D01*
X124100680Y-63950810D02*
X124073743Y-63869998D01*
X124073743Y-63869998D02*
X124073743Y-63816123D01*
X124073743Y-63816123D02*
X124100680Y-63735311D01*
X124100680Y-63735311D02*
X124208430Y-63627561D01*
X124208430Y-63627561D02*
X124289242Y-63600624D01*
X124289242Y-63600624D02*
X124343117Y-63600624D01*
X124343117Y-63600624D02*
X124423929Y-63627561D01*
X124423929Y-63627561D02*
X124450866Y-63654499D01*
X124450866Y-63654499D02*
X124477804Y-63735311D01*
X124477804Y-63735311D02*
X124477804Y-63789186D01*
X124477804Y-63789186D02*
X124450866Y-63869998D01*
X124450866Y-63869998D02*
X124343117Y-63977747D01*
X124343117Y-63977747D02*
X124316179Y-64058560D01*
X124316179Y-64058560D02*
X124316179Y-64112434D01*
X124316179Y-64112434D02*
X124343117Y-64193247D01*
X124343117Y-64193247D02*
X124450866Y-64300996D01*
X124450866Y-64300996D02*
X124531679Y-64327934D01*
X124531679Y-64327934D02*
X124585553Y-64327934D01*
X124585553Y-64327934D02*
X124666366Y-64300996D01*
X124666366Y-64300996D02*
X124774115Y-64193247D01*
X124774115Y-64193247D02*
X124801053Y-64112434D01*
X124801053Y-64112434D02*
X124801053Y-64058560D01*
X124801053Y-64058560D02*
X124774115Y-63977747D01*
X124774115Y-63977747D02*
X124666366Y-63869998D01*
X124666366Y-63869998D02*
X124585553Y-63843060D01*
X124585553Y-63843060D02*
X124531679Y-63843060D01*
X124531679Y-63843060D02*
X124450866Y-63869998D01*
X122672998Y-98490868D02*
X122592185Y-98517805D01*
X122592185Y-98517805D02*
X122511373Y-98598618D01*
X122511373Y-98598618D02*
X122457498Y-98706367D01*
X122457498Y-98706367D02*
X122457498Y-98814117D01*
X122457498Y-98814117D02*
X122484436Y-98894929D01*
X122484436Y-98894929D02*
X122565248Y-99029616D01*
X122565248Y-99029616D02*
X122646060Y-99110428D01*
X122646060Y-99110428D02*
X122780747Y-99191241D01*
X122780747Y-99191241D02*
X122861560Y-99218178D01*
X122861560Y-99218178D02*
X122969309Y-99218178D01*
X122969309Y-99218178D02*
X123077059Y-99164303D01*
X123077059Y-99164303D02*
X123130934Y-99110428D01*
X123130934Y-99110428D02*
X123184808Y-99002679D01*
X123184808Y-99002679D02*
X123184808Y-98948804D01*
X123184808Y-98948804D02*
X122996247Y-98760242D01*
X122996247Y-98760242D02*
X122888497Y-98867992D01*
X123481120Y-98760242D02*
X122915434Y-98194557D01*
X122915434Y-98194557D02*
X123130934Y-97979057D01*
X123130934Y-97979057D02*
X123211746Y-97952120D01*
X123211746Y-97952120D02*
X123265621Y-97952120D01*
X123265621Y-97952120D02*
X123346433Y-97979057D01*
X123346433Y-97979057D02*
X123427245Y-98059870D01*
X123427245Y-98059870D02*
X123454182Y-98140682D01*
X123454182Y-98140682D02*
X123454182Y-98194557D01*
X123454182Y-98194557D02*
X123427245Y-98275369D01*
X123427245Y-98275369D02*
X123211746Y-98490868D01*
X124343117Y-97898245D02*
X124019868Y-98221494D01*
X124181492Y-98059870D02*
X123615807Y-97494184D01*
X123615807Y-97494184D02*
X123642744Y-97628871D01*
X123642744Y-97628871D02*
X123642744Y-97736621D01*
X123642744Y-97736621D02*
X123615807Y-97817433D01*
X124262305Y-96847686D02*
X124154555Y-96955436D01*
X124154555Y-96955436D02*
X124127618Y-97036248D01*
X124127618Y-97036248D02*
X124127618Y-97090123D01*
X124127618Y-97090123D02*
X124154555Y-97224810D01*
X124154555Y-97224810D02*
X124235367Y-97359497D01*
X124235367Y-97359497D02*
X124450866Y-97574996D01*
X124450866Y-97574996D02*
X124531679Y-97601934D01*
X124531679Y-97601934D02*
X124585553Y-97601934D01*
X124585553Y-97601934D02*
X124666366Y-97574996D01*
X124666366Y-97574996D02*
X124774115Y-97467247D01*
X124774115Y-97467247D02*
X124801053Y-97386434D01*
X124801053Y-97386434D02*
X124801053Y-97332560D01*
X124801053Y-97332560D02*
X124774115Y-97251747D01*
X124774115Y-97251747D02*
X124639428Y-97117060D01*
X124639428Y-97117060D02*
X124558616Y-97090123D01*
X124558616Y-97090123D02*
X124504741Y-97090123D01*
X124504741Y-97090123D02*
X124423929Y-97117060D01*
X124423929Y-97117060D02*
X124316179Y-97224810D01*
X124316179Y-97224810D02*
X124289242Y-97305622D01*
X124289242Y-97305622D02*
X124289242Y-97359497D01*
X124289242Y-97359497D02*
X124316179Y-97440309D01*
X122465123Y-60460868D02*
X122815309Y-60110682D01*
X122815309Y-60110682D02*
X122842247Y-60514743D01*
X122842247Y-60514743D02*
X122923059Y-60433931D01*
X122923059Y-60433931D02*
X123003871Y-60406993D01*
X123003871Y-60406993D02*
X123057746Y-60406993D01*
X123057746Y-60406993D02*
X123138558Y-60433931D01*
X123138558Y-60433931D02*
X123273245Y-60568618D01*
X123273245Y-60568618D02*
X123300182Y-60649430D01*
X123300182Y-60649430D02*
X123300182Y-60703305D01*
X123300182Y-60703305D02*
X123273245Y-60784117D01*
X123273245Y-60784117D02*
X123111621Y-60945741D01*
X123111621Y-60945741D02*
X123030808Y-60972679D01*
X123030808Y-60972679D02*
X122976934Y-60972679D01*
X122976934Y-59949057D02*
X123731181Y-60326181D01*
X123731181Y-60326181D02*
X123354057Y-59571934D01*
X123488744Y-59437247D02*
X123838930Y-59087061D01*
X123838930Y-59087061D02*
X123865868Y-59491122D01*
X123865868Y-59491122D02*
X123946680Y-59410309D01*
X123946680Y-59410309D02*
X124027492Y-59383372D01*
X124027492Y-59383372D02*
X124081367Y-59383372D01*
X124081367Y-59383372D02*
X124162179Y-59410309D01*
X124162179Y-59410309D02*
X124296866Y-59544996D01*
X124296866Y-59544996D02*
X124323804Y-59625809D01*
X124323804Y-59625809D02*
X124323804Y-59679683D01*
X124323804Y-59679683D02*
X124296866Y-59760496D01*
X124296866Y-59760496D02*
X124135242Y-59922120D01*
X124135242Y-59922120D02*
X124054430Y-59949057D01*
X124054430Y-59949057D02*
X124000555Y-59949057D01*
X96418998Y-88330868D02*
X96338185Y-88357805D01*
X96338185Y-88357805D02*
X96257373Y-88438618D01*
X96257373Y-88438618D02*
X96203498Y-88546367D01*
X96203498Y-88546367D02*
X96203498Y-88654117D01*
X96203498Y-88654117D02*
X96230436Y-88734929D01*
X96230436Y-88734929D02*
X96311248Y-88869616D01*
X96311248Y-88869616D02*
X96392060Y-88950428D01*
X96392060Y-88950428D02*
X96526747Y-89031241D01*
X96526747Y-89031241D02*
X96607560Y-89058178D01*
X96607560Y-89058178D02*
X96715309Y-89058178D01*
X96715309Y-89058178D02*
X96823059Y-89004303D01*
X96823059Y-89004303D02*
X96876934Y-88950428D01*
X96876934Y-88950428D02*
X96930808Y-88842679D01*
X96930808Y-88842679D02*
X96930808Y-88788804D01*
X96930808Y-88788804D02*
X96742247Y-88600242D01*
X96742247Y-88600242D02*
X96634497Y-88707992D01*
X97227120Y-88600242D02*
X96661434Y-88034557D01*
X96661434Y-88034557D02*
X96876934Y-87819057D01*
X96876934Y-87819057D02*
X96957746Y-87792120D01*
X96957746Y-87792120D02*
X97011621Y-87792120D01*
X97011621Y-87792120D02*
X97092433Y-87819057D01*
X97092433Y-87819057D02*
X97173245Y-87899870D01*
X97173245Y-87899870D02*
X97200182Y-87980682D01*
X97200182Y-87980682D02*
X97200182Y-88034557D01*
X97200182Y-88034557D02*
X97173245Y-88115369D01*
X97173245Y-88115369D02*
X96957746Y-88330868D01*
X98089117Y-87738245D02*
X97765868Y-88061494D01*
X97927492Y-87899870D02*
X97361807Y-87334184D01*
X97361807Y-87334184D02*
X97388744Y-87468871D01*
X97388744Y-87468871D02*
X97388744Y-87576621D01*
X97388744Y-87576621D02*
X97361807Y-87657433D01*
X97792805Y-87010935D02*
X97792805Y-86957060D01*
X97792805Y-86957060D02*
X97819743Y-86876248D01*
X97819743Y-86876248D02*
X97954430Y-86741561D01*
X97954430Y-86741561D02*
X98035242Y-86714624D01*
X98035242Y-86714624D02*
X98089117Y-86714624D01*
X98089117Y-86714624D02*
X98169929Y-86741561D01*
X98169929Y-86741561D02*
X98223804Y-86795436D01*
X98223804Y-86795436D02*
X98277679Y-86903186D01*
X98277679Y-86903186D02*
X98277679Y-87549683D01*
X98277679Y-87549683D02*
X98627865Y-87199497D01*
X96564998Y-90870868D02*
X96484185Y-90897805D01*
X96484185Y-90897805D02*
X96403373Y-90978618D01*
X96403373Y-90978618D02*
X96349498Y-91086367D01*
X96349498Y-91086367D02*
X96349498Y-91194117D01*
X96349498Y-91194117D02*
X96376436Y-91274929D01*
X96376436Y-91274929D02*
X96457248Y-91409616D01*
X96457248Y-91409616D02*
X96538060Y-91490428D01*
X96538060Y-91490428D02*
X96672747Y-91571241D01*
X96672747Y-91571241D02*
X96753560Y-91598178D01*
X96753560Y-91598178D02*
X96861309Y-91598178D01*
X96861309Y-91598178D02*
X96969059Y-91544303D01*
X96969059Y-91544303D02*
X97022934Y-91490428D01*
X97022934Y-91490428D02*
X97076808Y-91382679D01*
X97076808Y-91382679D02*
X97076808Y-91328804D01*
X97076808Y-91328804D02*
X96888247Y-91140242D01*
X96888247Y-91140242D02*
X96780497Y-91247992D01*
X97373120Y-91140242D02*
X96807434Y-90574557D01*
X96807434Y-90574557D02*
X97022934Y-90359057D01*
X97022934Y-90359057D02*
X97103746Y-90332120D01*
X97103746Y-90332120D02*
X97157621Y-90332120D01*
X97157621Y-90332120D02*
X97238433Y-90359057D01*
X97238433Y-90359057D02*
X97319245Y-90439870D01*
X97319245Y-90439870D02*
X97346182Y-90520682D01*
X97346182Y-90520682D02*
X97346182Y-90574557D01*
X97346182Y-90574557D02*
X97319245Y-90655369D01*
X97319245Y-90655369D02*
X97103746Y-90870868D01*
X98235117Y-90278245D02*
X97911868Y-90601494D01*
X98073492Y-90439870D02*
X97507807Y-89874184D01*
X97507807Y-89874184D02*
X97534744Y-90008871D01*
X97534744Y-90008871D02*
X97534744Y-90116621D01*
X97534744Y-90116621D02*
X97507807Y-90197433D01*
X97857993Y-89523998D02*
X98208179Y-89173812D01*
X98208179Y-89173812D02*
X98235117Y-89577873D01*
X98235117Y-89577873D02*
X98315929Y-89497060D01*
X98315929Y-89497060D02*
X98396741Y-89470123D01*
X98396741Y-89470123D02*
X98450616Y-89470123D01*
X98450616Y-89470123D02*
X98531428Y-89497060D01*
X98531428Y-89497060D02*
X98666115Y-89631747D01*
X98666115Y-89631747D02*
X98693053Y-89712560D01*
X98693053Y-89712560D02*
X98693053Y-89766434D01*
X98693053Y-89766434D02*
X98666115Y-89847247D01*
X98666115Y-89847247D02*
X98504491Y-90008871D01*
X98504491Y-90008871D02*
X98423679Y-90035808D01*
X98423679Y-90035808D02*
X98369804Y-90035808D01*
X144563333Y-82424819D02*
X144230000Y-81948628D01*
X143991905Y-82424819D02*
X143991905Y-81424819D01*
X143991905Y-81424819D02*
X144372857Y-81424819D01*
X144372857Y-81424819D02*
X144468095Y-81472438D01*
X144468095Y-81472438D02*
X144515714Y-81520057D01*
X144515714Y-81520057D02*
X144563333Y-81615295D01*
X144563333Y-81615295D02*
X144563333Y-81758152D01*
X144563333Y-81758152D02*
X144515714Y-81853390D01*
X144515714Y-81853390D02*
X144468095Y-81901009D01*
X144468095Y-81901009D02*
X144372857Y-81948628D01*
X144372857Y-81948628D02*
X143991905Y-81948628D01*
X144944286Y-81520057D02*
X144991905Y-81472438D01*
X144991905Y-81472438D02*
X145087143Y-81424819D01*
X145087143Y-81424819D02*
X145325238Y-81424819D01*
X145325238Y-81424819D02*
X145420476Y-81472438D01*
X145420476Y-81472438D02*
X145468095Y-81520057D01*
X145468095Y-81520057D02*
X145515714Y-81615295D01*
X145515714Y-81615295D02*
X145515714Y-81710533D01*
X145515714Y-81710533D02*
X145468095Y-81853390D01*
X145468095Y-81853390D02*
X144896667Y-82424819D01*
X144896667Y-82424819D02*
X145515714Y-82424819D01*
D11*
%TO.C,D1*%
X146845000Y-78000000D02*
G75*
G02*
X146745000Y-78000000I-50000J0D01*
G01*
X146745000Y-78000000D02*
G75*
G02*
X146845000Y-78000000I50000J0D01*
G01*
D12*
%TO.C,J1*%
X162240000Y-46390000D02*
X162940000Y-46390000D01*
X162240000Y-48610000D02*
X173760000Y-48610000D01*
X162940000Y-44340000D02*
X162940000Y-46390000D01*
X162940000Y-44340000D02*
X163470000Y-44340000D01*
X163470000Y-38340000D02*
X163470000Y-44340000D01*
X163470000Y-38340000D02*
X172500000Y-38340000D01*
X172530000Y-38340000D02*
X172530000Y-44340000D01*
X172530000Y-44340000D02*
X173060000Y-44340000D01*
X173060000Y-44340000D02*
X173060000Y-46390000D01*
X173060000Y-46390000D02*
X173760000Y-46390000D01*
X162178271Y-48596634D02*
G75*
G02*
X162350000Y-46390001I171730J1096634D01*
G01*
X173650000Y-46390000D02*
G75*
G02*
X173650000Y-48610000I0J-1110000D01*
G01*
%TO.C,Q1*%
X159700000Y-86710000D02*
X163300000Y-86710000D01*
X159661522Y-86698478D02*
G75*
G02*
X161500000Y-82260000I1838478J1838478D01*
G01*
X161500000Y-82260000D02*
G75*
G02*
X163338478Y-86698478I0J-2600000D01*
G01*
%TO.C,R1*%
X141410000Y-61850000D02*
X144060000Y-61850000D01*
X141410000Y-66150000D02*
X144060000Y-66150000D01*
X141410000Y-66149999D02*
G75*
G02*
X141384524Y-61865613I1300000J2149999D01*
G01*
X144060000Y-61850000D02*
G75*
G02*
X144088027Y-66132144I-1350000J-2150000D01*
G01*
%TO.C,U1*%
X100075000Y-48470000D02*
X100075000Y-48770000D01*
X100075000Y-48470000D02*
X121075000Y-48470000D01*
X100075000Y-50870000D02*
X100075000Y-51270000D01*
X100075000Y-51137000D02*
X103082000Y-51137000D01*
X100075000Y-53470000D02*
X100075000Y-53870000D01*
X100075000Y-55970000D02*
X100075000Y-56370000D01*
X100075000Y-58570000D02*
X100075000Y-58970000D01*
X100075000Y-61070000D02*
X100075000Y-61470000D01*
X100075000Y-63570000D02*
X100075000Y-63970000D01*
X100075000Y-66170000D02*
X100075000Y-66570000D01*
X100075000Y-68670000D02*
X100075000Y-69070000D01*
X100075000Y-71270000D02*
X100075000Y-71670000D01*
X100075000Y-73770000D02*
X100075000Y-74170000D01*
X100075000Y-76270000D02*
X100075000Y-76670000D01*
X100075000Y-78870000D02*
X100075000Y-79270000D01*
X100075000Y-81370000D02*
X100075000Y-81770000D01*
X100075000Y-83970000D02*
X100075000Y-84370000D01*
X100075000Y-86470000D02*
X100075000Y-86870000D01*
X100075000Y-89070000D02*
X100075000Y-89470000D01*
X100075000Y-91570000D02*
X100075000Y-91970000D01*
X100075000Y-94070000D02*
X100075000Y-94470000D01*
X100075000Y-96670000D02*
X100075000Y-97070000D01*
X103082000Y-51137000D02*
X103082000Y-48470000D01*
X106875000Y-99470000D02*
X100075000Y-99470000D01*
X109075000Y-99470000D02*
X109475000Y-99470000D01*
X111675000Y-99470000D02*
X112075000Y-99470000D01*
X121075000Y-48470000D02*
X121075000Y-48770000D01*
X121075000Y-50870000D02*
X121075000Y-51270000D01*
X121075000Y-53470000D02*
X121075000Y-53870000D01*
X121075000Y-55970000D02*
X121075000Y-56370000D01*
X121075000Y-58570000D02*
X121075000Y-58970000D01*
X121075000Y-61070000D02*
X121075000Y-61470000D01*
X121075000Y-63570000D02*
X121075000Y-63970000D01*
X121075000Y-66170000D02*
X121075000Y-66570000D01*
X121075000Y-68670000D02*
X121075000Y-69070000D01*
X121075000Y-71270000D02*
X121075000Y-71670000D01*
X121075000Y-73770000D02*
X121075000Y-74170000D01*
X121075000Y-76270000D02*
X121075000Y-76670000D01*
X121075000Y-78870000D02*
X121075000Y-79270000D01*
X121075000Y-81370000D02*
X121075000Y-81770000D01*
X121075000Y-83970000D02*
X121075000Y-84370000D01*
X121075000Y-86470000D02*
X121075000Y-86870000D01*
X121075000Y-89070000D02*
X121075000Y-89470000D01*
X121075000Y-91570000D02*
X121075000Y-91970000D01*
X121075000Y-94070000D02*
X121075000Y-94470000D01*
X121075000Y-96670000D02*
X121075000Y-97070000D01*
X121075000Y-99470000D02*
X114275000Y-99470000D01*
%TO.C,R2*%
X143410000Y-82720000D02*
X146060000Y-82720000D01*
X143410000Y-87020000D02*
X146060000Y-87020000D01*
X143410000Y-87019999D02*
G75*
G02*
X143384524Y-82735613I1300000J2149999D01*
G01*
X146060000Y-82720000D02*
G75*
G02*
X146088027Y-87002144I-1350000J-2150000D01*
G01*
%TD*%
M02*
