%TF.GenerationSoftware,KiCad,Pcbnew,8.0.0*%
%TF.CreationDate,2024-04-01T19:54:57-03:00*%
%TF.ProjectId,circuito,63697263-7569-4746-9f2e-6b696361645f,rev?*%
%TF.SameCoordinates,Original*%
%TF.FileFunction,Copper,L1,Top*%
%TF.FilePolarity,Positive*%
%FSLAX46Y46*%
G04 Gerber Fmt 4.6, Leading zero omitted, Abs format (unit mm)*
G04 Created by KiCad (PCBNEW 8.0.0) date 2024-04-01 19:54:57*
%MOMM*%
%LPD*%
G01*
G04 APERTURE LIST*
G04 Aperture macros list*
%AMRoundRect*
0 Rectangle with rounded corners*
0 $1 Rounding radius*
0 $2 $3 $4 $5 $6 $7 $8 $9 X,Y pos of 4 corners*
0 Add a 4 corners polygon primitive as box body*
4,1,4,$2,$3,$4,$5,$6,$7,$8,$9,$2,$3,0*
0 Add four circle primitives for the rounded corners*
1,1,$1+$1,$2,$3*
1,1,$1+$1,$4,$5*
1,1,$1+$1,$6,$7*
1,1,$1+$1,$8,$9*
0 Add four rect primitives between the rounded corners*
20,1,$1+$1,$2,$3,$4,$5,0*
20,1,$1+$1,$4,$5,$6,$7,0*
20,1,$1+$1,$6,$7,$8,$9,0*
20,1,$1+$1,$8,$9,$2,$3,0*%
G04 Aperture macros list end*
%ADD10C,0.300000*%
%TA.AperFunction,NonConductor*%
%ADD11C,0.300000*%
%TD*%
%TA.AperFunction,SMDPad,CuDef*%
%ADD12RoundRect,0.100000X-0.130000X-0.100000X0.130000X-0.100000X0.130000X0.100000X-0.130000X0.100000X0*%
%TD*%
%TA.AperFunction,ComponentPad*%
%ADD13C,3.500000*%
%TD*%
%TA.AperFunction,ComponentPad*%
%ADD14R,3.500000X3.500000*%
%TD*%
%TA.AperFunction,ComponentPad*%
%ADD15C,1.400000*%
%TD*%
%TA.AperFunction,ComponentPad*%
%ADD16R,1.050000X1.500000*%
%TD*%
%TA.AperFunction,ComponentPad*%
%ADD17O,1.050000X1.500000*%
%TD*%
%TA.AperFunction,ComponentPad*%
%ADD18C,1.600000*%
%TD*%
%TA.AperFunction,ComponentPad*%
%ADD19O,1.700000X1.700000*%
%TD*%
%TA.AperFunction,SMDPad,CuDef*%
%ADD20R,3.500000X1.700000*%
%TD*%
%TA.AperFunction,ComponentPad*%
%ADD21R,1.700000X1.700000*%
%TD*%
%TA.AperFunction,SMDPad,CuDef*%
%ADD22R,1.700000X3.500000*%
%TD*%
%TA.AperFunction,Conductor*%
%ADD23C,0.200000*%
%TD*%
%TA.AperFunction,Conductor*%
%ADD24C,0.600000*%
%TD*%
G04 APERTURE END LIST*
D10*
D11*
X146483082Y-39872257D02*
X147197368Y-39872257D01*
X146340225Y-40300828D02*
X146840225Y-38800828D01*
X146840225Y-38800828D02*
X147340225Y-40300828D01*
X148054510Y-40300828D02*
X147911653Y-40229400D01*
X147911653Y-40229400D02*
X147840224Y-40086542D01*
X147840224Y-40086542D02*
X147840224Y-38800828D01*
X148625938Y-40300828D02*
X148625938Y-39300828D01*
X148625938Y-38800828D02*
X148554510Y-38872257D01*
X148554510Y-38872257D02*
X148625938Y-38943685D01*
X148625938Y-38943685D02*
X148697367Y-38872257D01*
X148697367Y-38872257D02*
X148625938Y-38800828D01*
X148625938Y-38800828D02*
X148625938Y-38943685D01*
X149340224Y-40300828D02*
X149340224Y-39300828D01*
X149340224Y-39443685D02*
X149411653Y-39372257D01*
X149411653Y-39372257D02*
X149554510Y-39300828D01*
X149554510Y-39300828D02*
X149768796Y-39300828D01*
X149768796Y-39300828D02*
X149911653Y-39372257D01*
X149911653Y-39372257D02*
X149983082Y-39515114D01*
X149983082Y-39515114D02*
X149983082Y-40300828D01*
X149983082Y-39515114D02*
X150054510Y-39372257D01*
X150054510Y-39372257D02*
X150197367Y-39300828D01*
X150197367Y-39300828D02*
X150411653Y-39300828D01*
X150411653Y-39300828D02*
X150554510Y-39372257D01*
X150554510Y-39372257D02*
X150625939Y-39515114D01*
X150625939Y-39515114D02*
X150625939Y-40300828D01*
X151911653Y-40229400D02*
X151768796Y-40300828D01*
X151768796Y-40300828D02*
X151483082Y-40300828D01*
X151483082Y-40300828D02*
X151340224Y-40229400D01*
X151340224Y-40229400D02*
X151268796Y-40086542D01*
X151268796Y-40086542D02*
X151268796Y-39515114D01*
X151268796Y-39515114D02*
X151340224Y-39372257D01*
X151340224Y-39372257D02*
X151483082Y-39300828D01*
X151483082Y-39300828D02*
X151768796Y-39300828D01*
X151768796Y-39300828D02*
X151911653Y-39372257D01*
X151911653Y-39372257D02*
X151983082Y-39515114D01*
X151983082Y-39515114D02*
X151983082Y-39657971D01*
X151983082Y-39657971D02*
X151268796Y-39800828D01*
X152625938Y-39300828D02*
X152625938Y-40300828D01*
X152625938Y-39443685D02*
X152697367Y-39372257D01*
X152697367Y-39372257D02*
X152840224Y-39300828D01*
X152840224Y-39300828D02*
X153054510Y-39300828D01*
X153054510Y-39300828D02*
X153197367Y-39372257D01*
X153197367Y-39372257D02*
X153268796Y-39515114D01*
X153268796Y-39515114D02*
X153268796Y-40300828D01*
X153768796Y-39300828D02*
X154340224Y-39300828D01*
X153983081Y-38800828D02*
X153983081Y-40086542D01*
X153983081Y-40086542D02*
X154054510Y-40229400D01*
X154054510Y-40229400D02*
X154197367Y-40300828D01*
X154197367Y-40300828D02*
X154340224Y-40300828D01*
X155483082Y-40300828D02*
X155483082Y-39515114D01*
X155483082Y-39515114D02*
X155411653Y-39372257D01*
X155411653Y-39372257D02*
X155268796Y-39300828D01*
X155268796Y-39300828D02*
X154983082Y-39300828D01*
X154983082Y-39300828D02*
X154840224Y-39372257D01*
X155483082Y-40229400D02*
X155340224Y-40300828D01*
X155340224Y-40300828D02*
X154983082Y-40300828D01*
X154983082Y-40300828D02*
X154840224Y-40229400D01*
X154840224Y-40229400D02*
X154768796Y-40086542D01*
X154768796Y-40086542D02*
X154768796Y-39943685D01*
X154768796Y-39943685D02*
X154840224Y-39800828D01*
X154840224Y-39800828D02*
X154983082Y-39729400D01*
X154983082Y-39729400D02*
X155340224Y-39729400D01*
X155340224Y-39729400D02*
X155483082Y-39657971D01*
X156840225Y-40229400D02*
X156697367Y-40300828D01*
X156697367Y-40300828D02*
X156411653Y-40300828D01*
X156411653Y-40300828D02*
X156268796Y-40229400D01*
X156268796Y-40229400D02*
X156197367Y-40157971D01*
X156197367Y-40157971D02*
X156125939Y-40015114D01*
X156125939Y-40015114D02*
X156125939Y-39586542D01*
X156125939Y-39586542D02*
X156197367Y-39443685D01*
X156197367Y-39443685D02*
X156268796Y-39372257D01*
X156268796Y-39372257D02*
X156411653Y-39300828D01*
X156411653Y-39300828D02*
X156697367Y-39300828D01*
X156697367Y-39300828D02*
X156840225Y-39372257D01*
X156554510Y-40372257D02*
X156697367Y-40443685D01*
X156697367Y-40443685D02*
X156768796Y-40586542D01*
X156768796Y-40586542D02*
X156697367Y-40729400D01*
X156697367Y-40729400D02*
X156554510Y-40800828D01*
X156554510Y-40800828D02*
X156340225Y-40800828D01*
X158125939Y-40300828D02*
X158125939Y-39515114D01*
X158125939Y-39515114D02*
X158054510Y-39372257D01*
X158054510Y-39372257D02*
X157911653Y-39300828D01*
X157911653Y-39300828D02*
X157625939Y-39300828D01*
X157625939Y-39300828D02*
X157483081Y-39372257D01*
X158125939Y-40229400D02*
X157983081Y-40300828D01*
X157983081Y-40300828D02*
X157625939Y-40300828D01*
X157625939Y-40300828D02*
X157483081Y-40229400D01*
X157483081Y-40229400D02*
X157411653Y-40086542D01*
X157411653Y-40086542D02*
X157411653Y-39943685D01*
X157411653Y-39943685D02*
X157483081Y-39800828D01*
X157483081Y-39800828D02*
X157625939Y-39729400D01*
X157625939Y-39729400D02*
X157983081Y-39729400D01*
X157983081Y-39729400D02*
X158125939Y-39657971D01*
X157411653Y-38943685D02*
X157483081Y-38872257D01*
X157483081Y-38872257D02*
X157625939Y-38800828D01*
X157625939Y-38800828D02*
X157911653Y-38943685D01*
X157911653Y-38943685D02*
X158054510Y-38872257D01*
X158054510Y-38872257D02*
X158125939Y-38800828D01*
X159054510Y-40300828D02*
X158911653Y-40229400D01*
X158911653Y-40229400D02*
X158840224Y-40157971D01*
X158840224Y-40157971D02*
X158768796Y-40015114D01*
X158768796Y-40015114D02*
X158768796Y-39586542D01*
X158768796Y-39586542D02*
X158840224Y-39443685D01*
X158840224Y-39443685D02*
X158911653Y-39372257D01*
X158911653Y-39372257D02*
X159054510Y-39300828D01*
X159054510Y-39300828D02*
X159268796Y-39300828D01*
X159268796Y-39300828D02*
X159411653Y-39372257D01*
X159411653Y-39372257D02*
X159483082Y-39443685D01*
X159483082Y-39443685D02*
X159554510Y-39586542D01*
X159554510Y-39586542D02*
X159554510Y-40015114D01*
X159554510Y-40015114D02*
X159483082Y-40157971D01*
X159483082Y-40157971D02*
X159411653Y-40229400D01*
X159411653Y-40229400D02*
X159268796Y-40300828D01*
X159268796Y-40300828D02*
X159054510Y-40300828D01*
D10*
D11*
X131411653Y-70800828D02*
X130911653Y-70086542D01*
X130554510Y-70800828D02*
X130554510Y-69300828D01*
X130554510Y-69300828D02*
X131125939Y-69300828D01*
X131125939Y-69300828D02*
X131268796Y-69372257D01*
X131268796Y-69372257D02*
X131340225Y-69443685D01*
X131340225Y-69443685D02*
X131411653Y-69586542D01*
X131411653Y-69586542D02*
X131411653Y-69800828D01*
X131411653Y-69800828D02*
X131340225Y-69943685D01*
X131340225Y-69943685D02*
X131268796Y-70015114D01*
X131268796Y-70015114D02*
X131125939Y-70086542D01*
X131125939Y-70086542D02*
X130554510Y-70086542D01*
X132625939Y-70729400D02*
X132483082Y-70800828D01*
X132483082Y-70800828D02*
X132197368Y-70800828D01*
X132197368Y-70800828D02*
X132054510Y-70729400D01*
X132054510Y-70729400D02*
X131983082Y-70586542D01*
X131983082Y-70586542D02*
X131983082Y-70015114D01*
X131983082Y-70015114D02*
X132054510Y-69872257D01*
X132054510Y-69872257D02*
X132197368Y-69800828D01*
X132197368Y-69800828D02*
X132483082Y-69800828D01*
X132483082Y-69800828D02*
X132625939Y-69872257D01*
X132625939Y-69872257D02*
X132697368Y-70015114D01*
X132697368Y-70015114D02*
X132697368Y-70157971D01*
X132697368Y-70157971D02*
X131983082Y-70300828D01*
X133268796Y-70729400D02*
X133411653Y-70800828D01*
X133411653Y-70800828D02*
X133697367Y-70800828D01*
X133697367Y-70800828D02*
X133840224Y-70729400D01*
X133840224Y-70729400D02*
X133911653Y-70586542D01*
X133911653Y-70586542D02*
X133911653Y-70515114D01*
X133911653Y-70515114D02*
X133840224Y-70372257D01*
X133840224Y-70372257D02*
X133697367Y-70300828D01*
X133697367Y-70300828D02*
X133483082Y-70300828D01*
X133483082Y-70300828D02*
X133340224Y-70229400D01*
X133340224Y-70229400D02*
X133268796Y-70086542D01*
X133268796Y-70086542D02*
X133268796Y-70015114D01*
X133268796Y-70015114D02*
X133340224Y-69872257D01*
X133340224Y-69872257D02*
X133483082Y-69800828D01*
X133483082Y-69800828D02*
X133697367Y-69800828D01*
X133697367Y-69800828D02*
X133840224Y-69872257D01*
X134554510Y-70800828D02*
X134554510Y-69800828D01*
X134554510Y-69300828D02*
X134483082Y-69372257D01*
X134483082Y-69372257D02*
X134554510Y-69443685D01*
X134554510Y-69443685D02*
X134625939Y-69372257D01*
X134625939Y-69372257D02*
X134554510Y-69300828D01*
X134554510Y-69300828D02*
X134554510Y-69443685D01*
X135197368Y-70729400D02*
X135340225Y-70800828D01*
X135340225Y-70800828D02*
X135625939Y-70800828D01*
X135625939Y-70800828D02*
X135768796Y-70729400D01*
X135768796Y-70729400D02*
X135840225Y-70586542D01*
X135840225Y-70586542D02*
X135840225Y-70515114D01*
X135840225Y-70515114D02*
X135768796Y-70372257D01*
X135768796Y-70372257D02*
X135625939Y-70300828D01*
X135625939Y-70300828D02*
X135411654Y-70300828D01*
X135411654Y-70300828D02*
X135268796Y-70229400D01*
X135268796Y-70229400D02*
X135197368Y-70086542D01*
X135197368Y-70086542D02*
X135197368Y-70015114D01*
X135197368Y-70015114D02*
X135268796Y-69872257D01*
X135268796Y-69872257D02*
X135411654Y-69800828D01*
X135411654Y-69800828D02*
X135625939Y-69800828D01*
X135625939Y-69800828D02*
X135768796Y-69872257D01*
X136268797Y-69800828D02*
X136840225Y-69800828D01*
X136483082Y-69300828D02*
X136483082Y-70586542D01*
X136483082Y-70586542D02*
X136554511Y-70729400D01*
X136554511Y-70729400D02*
X136697368Y-70800828D01*
X136697368Y-70800828D02*
X136840225Y-70800828D01*
X137554511Y-70800828D02*
X137411654Y-70729400D01*
X137411654Y-70729400D02*
X137340225Y-70657971D01*
X137340225Y-70657971D02*
X137268797Y-70515114D01*
X137268797Y-70515114D02*
X137268797Y-70086542D01*
X137268797Y-70086542D02*
X137340225Y-69943685D01*
X137340225Y-69943685D02*
X137411654Y-69872257D01*
X137411654Y-69872257D02*
X137554511Y-69800828D01*
X137554511Y-69800828D02*
X137768797Y-69800828D01*
X137768797Y-69800828D02*
X137911654Y-69872257D01*
X137911654Y-69872257D02*
X137983083Y-69943685D01*
X137983083Y-69943685D02*
X138054511Y-70086542D01*
X138054511Y-70086542D02*
X138054511Y-70515114D01*
X138054511Y-70515114D02*
X137983083Y-70657971D01*
X137983083Y-70657971D02*
X137911654Y-70729400D01*
X137911654Y-70729400D02*
X137768797Y-70800828D01*
X137768797Y-70800828D02*
X137554511Y-70800828D01*
X138697368Y-70800828D02*
X138697368Y-69800828D01*
X138697368Y-70086542D02*
X138768797Y-69943685D01*
X138768797Y-69943685D02*
X138840226Y-69872257D01*
X138840226Y-69872257D02*
X138983083Y-69800828D01*
X138983083Y-69800828D02*
X139125940Y-69800828D01*
X141554511Y-70800828D02*
X140697368Y-70800828D01*
X141125939Y-70800828D02*
X141125939Y-69300828D01*
X141125939Y-69300828D02*
X140983082Y-69515114D01*
X140983082Y-69515114D02*
X140840225Y-69657971D01*
X140840225Y-69657971D02*
X140697368Y-69729400D01*
X142483082Y-69300828D02*
X142625939Y-69300828D01*
X142625939Y-69300828D02*
X142768796Y-69372257D01*
X142768796Y-69372257D02*
X142840225Y-69443685D01*
X142840225Y-69443685D02*
X142911653Y-69586542D01*
X142911653Y-69586542D02*
X142983082Y-69872257D01*
X142983082Y-69872257D02*
X142983082Y-70229400D01*
X142983082Y-70229400D02*
X142911653Y-70515114D01*
X142911653Y-70515114D02*
X142840225Y-70657971D01*
X142840225Y-70657971D02*
X142768796Y-70729400D01*
X142768796Y-70729400D02*
X142625939Y-70800828D01*
X142625939Y-70800828D02*
X142483082Y-70800828D01*
X142483082Y-70800828D02*
X142340225Y-70729400D01*
X142340225Y-70729400D02*
X142268796Y-70657971D01*
X142268796Y-70657971D02*
X142197367Y-70515114D01*
X142197367Y-70515114D02*
X142125939Y-70229400D01*
X142125939Y-70229400D02*
X142125939Y-69872257D01*
X142125939Y-69872257D02*
X142197367Y-69586542D01*
X142197367Y-69586542D02*
X142268796Y-69443685D01*
X142268796Y-69443685D02*
X142340225Y-69372257D01*
X142340225Y-69372257D02*
X142483082Y-69300828D01*
X143625938Y-70800828D02*
X143625938Y-69300828D01*
X143768796Y-70229400D02*
X144197367Y-70800828D01*
X144197367Y-69800828D02*
X143625938Y-70372257D01*
D10*
D11*
X134411653Y-91300828D02*
X133911653Y-90586542D01*
X133554510Y-91300828D02*
X133554510Y-89800828D01*
X133554510Y-89800828D02*
X134125939Y-89800828D01*
X134125939Y-89800828D02*
X134268796Y-89872257D01*
X134268796Y-89872257D02*
X134340225Y-89943685D01*
X134340225Y-89943685D02*
X134411653Y-90086542D01*
X134411653Y-90086542D02*
X134411653Y-90300828D01*
X134411653Y-90300828D02*
X134340225Y-90443685D01*
X134340225Y-90443685D02*
X134268796Y-90515114D01*
X134268796Y-90515114D02*
X134125939Y-90586542D01*
X134125939Y-90586542D02*
X133554510Y-90586542D01*
X135625939Y-91229400D02*
X135483082Y-91300828D01*
X135483082Y-91300828D02*
X135197368Y-91300828D01*
X135197368Y-91300828D02*
X135054510Y-91229400D01*
X135054510Y-91229400D02*
X134983082Y-91086542D01*
X134983082Y-91086542D02*
X134983082Y-90515114D01*
X134983082Y-90515114D02*
X135054510Y-90372257D01*
X135054510Y-90372257D02*
X135197368Y-90300828D01*
X135197368Y-90300828D02*
X135483082Y-90300828D01*
X135483082Y-90300828D02*
X135625939Y-90372257D01*
X135625939Y-90372257D02*
X135697368Y-90515114D01*
X135697368Y-90515114D02*
X135697368Y-90657971D01*
X135697368Y-90657971D02*
X134983082Y-90800828D01*
X136268796Y-91229400D02*
X136411653Y-91300828D01*
X136411653Y-91300828D02*
X136697367Y-91300828D01*
X136697367Y-91300828D02*
X136840224Y-91229400D01*
X136840224Y-91229400D02*
X136911653Y-91086542D01*
X136911653Y-91086542D02*
X136911653Y-91015114D01*
X136911653Y-91015114D02*
X136840224Y-90872257D01*
X136840224Y-90872257D02*
X136697367Y-90800828D01*
X136697367Y-90800828D02*
X136483082Y-90800828D01*
X136483082Y-90800828D02*
X136340224Y-90729400D01*
X136340224Y-90729400D02*
X136268796Y-90586542D01*
X136268796Y-90586542D02*
X136268796Y-90515114D01*
X136268796Y-90515114D02*
X136340224Y-90372257D01*
X136340224Y-90372257D02*
X136483082Y-90300828D01*
X136483082Y-90300828D02*
X136697367Y-90300828D01*
X136697367Y-90300828D02*
X136840224Y-90372257D01*
X137554510Y-91300828D02*
X137554510Y-90300828D01*
X137554510Y-89800828D02*
X137483082Y-89872257D01*
X137483082Y-89872257D02*
X137554510Y-89943685D01*
X137554510Y-89943685D02*
X137625939Y-89872257D01*
X137625939Y-89872257D02*
X137554510Y-89800828D01*
X137554510Y-89800828D02*
X137554510Y-89943685D01*
X138197368Y-91229400D02*
X138340225Y-91300828D01*
X138340225Y-91300828D02*
X138625939Y-91300828D01*
X138625939Y-91300828D02*
X138768796Y-91229400D01*
X138768796Y-91229400D02*
X138840225Y-91086542D01*
X138840225Y-91086542D02*
X138840225Y-91015114D01*
X138840225Y-91015114D02*
X138768796Y-90872257D01*
X138768796Y-90872257D02*
X138625939Y-90800828D01*
X138625939Y-90800828D02*
X138411654Y-90800828D01*
X138411654Y-90800828D02*
X138268796Y-90729400D01*
X138268796Y-90729400D02*
X138197368Y-90586542D01*
X138197368Y-90586542D02*
X138197368Y-90515114D01*
X138197368Y-90515114D02*
X138268796Y-90372257D01*
X138268796Y-90372257D02*
X138411654Y-90300828D01*
X138411654Y-90300828D02*
X138625939Y-90300828D01*
X138625939Y-90300828D02*
X138768796Y-90372257D01*
X139268797Y-90300828D02*
X139840225Y-90300828D01*
X139483082Y-89800828D02*
X139483082Y-91086542D01*
X139483082Y-91086542D02*
X139554511Y-91229400D01*
X139554511Y-91229400D02*
X139697368Y-91300828D01*
X139697368Y-91300828D02*
X139840225Y-91300828D01*
X140554511Y-91300828D02*
X140411654Y-91229400D01*
X140411654Y-91229400D02*
X140340225Y-91157971D01*
X140340225Y-91157971D02*
X140268797Y-91015114D01*
X140268797Y-91015114D02*
X140268797Y-90586542D01*
X140268797Y-90586542D02*
X140340225Y-90443685D01*
X140340225Y-90443685D02*
X140411654Y-90372257D01*
X140411654Y-90372257D02*
X140554511Y-90300828D01*
X140554511Y-90300828D02*
X140768797Y-90300828D01*
X140768797Y-90300828D02*
X140911654Y-90372257D01*
X140911654Y-90372257D02*
X140983083Y-90443685D01*
X140983083Y-90443685D02*
X141054511Y-90586542D01*
X141054511Y-90586542D02*
X141054511Y-91015114D01*
X141054511Y-91015114D02*
X140983083Y-91157971D01*
X140983083Y-91157971D02*
X140911654Y-91229400D01*
X140911654Y-91229400D02*
X140768797Y-91300828D01*
X140768797Y-91300828D02*
X140554511Y-91300828D01*
X141697368Y-91300828D02*
X141697368Y-90300828D01*
X141697368Y-90586542D02*
X141768797Y-90443685D01*
X141768797Y-90443685D02*
X141840226Y-90372257D01*
X141840226Y-90372257D02*
X141983083Y-90300828D01*
X141983083Y-90300828D02*
X142125940Y-90300828D01*
X144554511Y-91300828D02*
X143697368Y-91300828D01*
X144125939Y-91300828D02*
X144125939Y-89800828D01*
X144125939Y-89800828D02*
X143983082Y-90015114D01*
X143983082Y-90015114D02*
X143840225Y-90157971D01*
X143840225Y-90157971D02*
X143697368Y-90229400D01*
X145483082Y-89800828D02*
X145625939Y-89800828D01*
X145625939Y-89800828D02*
X145768796Y-89872257D01*
X145768796Y-89872257D02*
X145840225Y-89943685D01*
X145840225Y-89943685D02*
X145911653Y-90086542D01*
X145911653Y-90086542D02*
X145983082Y-90372257D01*
X145983082Y-90372257D02*
X145983082Y-90729400D01*
X145983082Y-90729400D02*
X145911653Y-91015114D01*
X145911653Y-91015114D02*
X145840225Y-91157971D01*
X145840225Y-91157971D02*
X145768796Y-91229400D01*
X145768796Y-91229400D02*
X145625939Y-91300828D01*
X145625939Y-91300828D02*
X145483082Y-91300828D01*
X145483082Y-91300828D02*
X145340225Y-91229400D01*
X145340225Y-91229400D02*
X145268796Y-91157971D01*
X145268796Y-91157971D02*
X145197367Y-91015114D01*
X145197367Y-91015114D02*
X145125939Y-90729400D01*
X145125939Y-90729400D02*
X145125939Y-90372257D01*
X145125939Y-90372257D02*
X145197367Y-90086542D01*
X145197367Y-90086542D02*
X145268796Y-89943685D01*
X145268796Y-89943685D02*
X145340225Y-89872257D01*
X145340225Y-89872257D02*
X145483082Y-89800828D01*
X146625938Y-91300828D02*
X146625938Y-89800828D01*
X146768796Y-90729400D02*
X147197367Y-91300828D01*
X147197367Y-90300828D02*
X146625938Y-90872257D01*
D10*
D11*
X152268796Y-79300828D02*
X151554510Y-79300828D01*
X151554510Y-79300828D02*
X151554510Y-77800828D01*
X152768796Y-78515114D02*
X153268796Y-78515114D01*
X153483082Y-79300828D02*
X152768796Y-79300828D01*
X152768796Y-79300828D02*
X152768796Y-77800828D01*
X152768796Y-77800828D02*
X153483082Y-77800828D01*
X154125939Y-79300828D02*
X154125939Y-77800828D01*
X154125939Y-77800828D02*
X154483082Y-77800828D01*
X154483082Y-77800828D02*
X154697368Y-77872257D01*
X154697368Y-77872257D02*
X154840225Y-78015114D01*
X154840225Y-78015114D02*
X154911654Y-78157971D01*
X154911654Y-78157971D02*
X154983082Y-78443685D01*
X154983082Y-78443685D02*
X154983082Y-78657971D01*
X154983082Y-78657971D02*
X154911654Y-78943685D01*
X154911654Y-78943685D02*
X154840225Y-79086542D01*
X154840225Y-79086542D02*
X154697368Y-79229400D01*
X154697368Y-79229400D02*
X154483082Y-79300828D01*
X154483082Y-79300828D02*
X154125939Y-79300828D01*
D10*
D11*
X153911653Y-91657971D02*
X153840225Y-91729400D01*
X153840225Y-91729400D02*
X153625939Y-91800828D01*
X153625939Y-91800828D02*
X153483082Y-91800828D01*
X153483082Y-91800828D02*
X153268796Y-91729400D01*
X153268796Y-91729400D02*
X153125939Y-91586542D01*
X153125939Y-91586542D02*
X153054510Y-91443685D01*
X153054510Y-91443685D02*
X152983082Y-91157971D01*
X152983082Y-91157971D02*
X152983082Y-90943685D01*
X152983082Y-90943685D02*
X153054510Y-90657971D01*
X153054510Y-90657971D02*
X153125939Y-90515114D01*
X153125939Y-90515114D02*
X153268796Y-90372257D01*
X153268796Y-90372257D02*
X153483082Y-90300828D01*
X153483082Y-90300828D02*
X153625939Y-90300828D01*
X153625939Y-90300828D02*
X153840225Y-90372257D01*
X153840225Y-90372257D02*
X153911653Y-90443685D01*
X155197368Y-91800828D02*
X155197368Y-91015114D01*
X155197368Y-91015114D02*
X155125939Y-90872257D01*
X155125939Y-90872257D02*
X154983082Y-90800828D01*
X154983082Y-90800828D02*
X154697368Y-90800828D01*
X154697368Y-90800828D02*
X154554510Y-90872257D01*
X155197368Y-91729400D02*
X155054510Y-91800828D01*
X155054510Y-91800828D02*
X154697368Y-91800828D01*
X154697368Y-91800828D02*
X154554510Y-91729400D01*
X154554510Y-91729400D02*
X154483082Y-91586542D01*
X154483082Y-91586542D02*
X154483082Y-91443685D01*
X154483082Y-91443685D02*
X154554510Y-91300828D01*
X154554510Y-91300828D02*
X154697368Y-91229400D01*
X154697368Y-91229400D02*
X155054510Y-91229400D01*
X155054510Y-91229400D02*
X155197368Y-91157971D01*
X155911653Y-90800828D02*
X155911653Y-92300828D01*
X155911653Y-90872257D02*
X156054511Y-90800828D01*
X156054511Y-90800828D02*
X156340225Y-90800828D01*
X156340225Y-90800828D02*
X156483082Y-90872257D01*
X156483082Y-90872257D02*
X156554511Y-90943685D01*
X156554511Y-90943685D02*
X156625939Y-91086542D01*
X156625939Y-91086542D02*
X156625939Y-91515114D01*
X156625939Y-91515114D02*
X156554511Y-91657971D01*
X156554511Y-91657971D02*
X156483082Y-91729400D01*
X156483082Y-91729400D02*
X156340225Y-91800828D01*
X156340225Y-91800828D02*
X156054511Y-91800828D01*
X156054511Y-91800828D02*
X155911653Y-91729400D01*
X157911654Y-91800828D02*
X157911654Y-91015114D01*
X157911654Y-91015114D02*
X157840225Y-90872257D01*
X157840225Y-90872257D02*
X157697368Y-90800828D01*
X157697368Y-90800828D02*
X157411654Y-90800828D01*
X157411654Y-90800828D02*
X157268796Y-90872257D01*
X157911654Y-91729400D02*
X157768796Y-91800828D01*
X157768796Y-91800828D02*
X157411654Y-91800828D01*
X157411654Y-91800828D02*
X157268796Y-91729400D01*
X157268796Y-91729400D02*
X157197368Y-91586542D01*
X157197368Y-91586542D02*
X157197368Y-91443685D01*
X157197368Y-91443685D02*
X157268796Y-91300828D01*
X157268796Y-91300828D02*
X157411654Y-91229400D01*
X157411654Y-91229400D02*
X157768796Y-91229400D01*
X157768796Y-91229400D02*
X157911654Y-91157971D01*
X159268797Y-91729400D02*
X159125939Y-91800828D01*
X159125939Y-91800828D02*
X158840225Y-91800828D01*
X158840225Y-91800828D02*
X158697368Y-91729400D01*
X158697368Y-91729400D02*
X158625939Y-91657971D01*
X158625939Y-91657971D02*
X158554511Y-91515114D01*
X158554511Y-91515114D02*
X158554511Y-91086542D01*
X158554511Y-91086542D02*
X158625939Y-90943685D01*
X158625939Y-90943685D02*
X158697368Y-90872257D01*
X158697368Y-90872257D02*
X158840225Y-90800828D01*
X158840225Y-90800828D02*
X159125939Y-90800828D01*
X159125939Y-90800828D02*
X159268797Y-90872257D01*
X159911653Y-91800828D02*
X159911653Y-90800828D01*
X159911653Y-90300828D02*
X159840225Y-90372257D01*
X159840225Y-90372257D02*
X159911653Y-90443685D01*
X159911653Y-90443685D02*
X159983082Y-90372257D01*
X159983082Y-90372257D02*
X159911653Y-90300828D01*
X159911653Y-90300828D02*
X159911653Y-90443685D01*
X160411654Y-90800828D02*
X160983082Y-90800828D01*
X160625939Y-90300828D02*
X160625939Y-91586542D01*
X160625939Y-91586542D02*
X160697368Y-91729400D01*
X160697368Y-91729400D02*
X160840225Y-91800828D01*
X160840225Y-91800828D02*
X160983082Y-91800828D01*
X161697368Y-91800828D02*
X161554511Y-91729400D01*
X161554511Y-91729400D02*
X161483082Y-91657971D01*
X161483082Y-91657971D02*
X161411654Y-91515114D01*
X161411654Y-91515114D02*
X161411654Y-91086542D01*
X161411654Y-91086542D02*
X161483082Y-90943685D01*
X161483082Y-90943685D02*
X161554511Y-90872257D01*
X161554511Y-90872257D02*
X161697368Y-90800828D01*
X161697368Y-90800828D02*
X161911654Y-90800828D01*
X161911654Y-90800828D02*
X162054511Y-90872257D01*
X162054511Y-90872257D02*
X162125940Y-90943685D01*
X162125940Y-90943685D02*
X162197368Y-91086542D01*
X162197368Y-91086542D02*
X162197368Y-91515114D01*
X162197368Y-91515114D02*
X162125940Y-91657971D01*
X162125940Y-91657971D02*
X162054511Y-91729400D01*
X162054511Y-91729400D02*
X161911654Y-91800828D01*
X161911654Y-91800828D02*
X161697368Y-91800828D01*
X162840225Y-91800828D02*
X162840225Y-90800828D01*
X162840225Y-91086542D02*
X162911654Y-90943685D01*
X162911654Y-90943685D02*
X162983083Y-90872257D01*
X162983083Y-90872257D02*
X163125940Y-90800828D01*
X163125940Y-90800828D02*
X163268797Y-90800828D01*
X165411653Y-91015114D02*
X165625939Y-91086542D01*
X165625939Y-91086542D02*
X165697368Y-91157971D01*
X165697368Y-91157971D02*
X165768796Y-91300828D01*
X165768796Y-91300828D02*
X165768796Y-91515114D01*
X165768796Y-91515114D02*
X165697368Y-91657971D01*
X165697368Y-91657971D02*
X165625939Y-91729400D01*
X165625939Y-91729400D02*
X165483082Y-91800828D01*
X165483082Y-91800828D02*
X164911653Y-91800828D01*
X164911653Y-91800828D02*
X164911653Y-90300828D01*
X164911653Y-90300828D02*
X165411653Y-90300828D01*
X165411653Y-90300828D02*
X165554511Y-90372257D01*
X165554511Y-90372257D02*
X165625939Y-90443685D01*
X165625939Y-90443685D02*
X165697368Y-90586542D01*
X165697368Y-90586542D02*
X165697368Y-90729400D01*
X165697368Y-90729400D02*
X165625939Y-90872257D01*
X165625939Y-90872257D02*
X165554511Y-90943685D01*
X165554511Y-90943685D02*
X165411653Y-91015114D01*
X165411653Y-91015114D02*
X164911653Y-91015114D01*
X167268796Y-91657971D02*
X167197368Y-91729400D01*
X167197368Y-91729400D02*
X166983082Y-91800828D01*
X166983082Y-91800828D02*
X166840225Y-91800828D01*
X166840225Y-91800828D02*
X166625939Y-91729400D01*
X166625939Y-91729400D02*
X166483082Y-91586542D01*
X166483082Y-91586542D02*
X166411653Y-91443685D01*
X166411653Y-91443685D02*
X166340225Y-91157971D01*
X166340225Y-91157971D02*
X166340225Y-90943685D01*
X166340225Y-90943685D02*
X166411653Y-90657971D01*
X166411653Y-90657971D02*
X166483082Y-90515114D01*
X166483082Y-90515114D02*
X166625939Y-90372257D01*
X166625939Y-90372257D02*
X166840225Y-90300828D01*
X166840225Y-90300828D02*
X166983082Y-90300828D01*
X166983082Y-90300828D02*
X167197368Y-90372257D01*
X167197368Y-90372257D02*
X167268796Y-90443685D01*
X168625939Y-90300828D02*
X167911653Y-90300828D01*
X167911653Y-90300828D02*
X167840225Y-91015114D01*
X167840225Y-91015114D02*
X167911653Y-90943685D01*
X167911653Y-90943685D02*
X168054511Y-90872257D01*
X168054511Y-90872257D02*
X168411653Y-90872257D01*
X168411653Y-90872257D02*
X168554511Y-90943685D01*
X168554511Y-90943685D02*
X168625939Y-91015114D01*
X168625939Y-91015114D02*
X168697368Y-91157971D01*
X168697368Y-91157971D02*
X168697368Y-91515114D01*
X168697368Y-91515114D02*
X168625939Y-91657971D01*
X168625939Y-91657971D02*
X168554511Y-91729400D01*
X168554511Y-91729400D02*
X168411653Y-91800828D01*
X168411653Y-91800828D02*
X168054511Y-91800828D01*
X168054511Y-91800828D02*
X167911653Y-91729400D01*
X167911653Y-91729400D02*
X167840225Y-91657971D01*
X170054510Y-90300828D02*
X169340224Y-90300828D01*
X169340224Y-90300828D02*
X169268796Y-91015114D01*
X169268796Y-91015114D02*
X169340224Y-90943685D01*
X169340224Y-90943685D02*
X169483082Y-90872257D01*
X169483082Y-90872257D02*
X169840224Y-90872257D01*
X169840224Y-90872257D02*
X169983082Y-90943685D01*
X169983082Y-90943685D02*
X170054510Y-91015114D01*
X170054510Y-91015114D02*
X170125939Y-91157971D01*
X170125939Y-91157971D02*
X170125939Y-91515114D01*
X170125939Y-91515114D02*
X170054510Y-91657971D01*
X170054510Y-91657971D02*
X169983082Y-91729400D01*
X169983082Y-91729400D02*
X169840224Y-91800828D01*
X169840224Y-91800828D02*
X169483082Y-91800828D01*
X169483082Y-91800828D02*
X169340224Y-91729400D01*
X169340224Y-91729400D02*
X169268796Y-91657971D01*
X170983081Y-90943685D02*
X170840224Y-90872257D01*
X170840224Y-90872257D02*
X170768795Y-90800828D01*
X170768795Y-90800828D02*
X170697367Y-90657971D01*
X170697367Y-90657971D02*
X170697367Y-90586542D01*
X170697367Y-90586542D02*
X170768795Y-90443685D01*
X170768795Y-90443685D02*
X170840224Y-90372257D01*
X170840224Y-90372257D02*
X170983081Y-90300828D01*
X170983081Y-90300828D02*
X171268795Y-90300828D01*
X171268795Y-90300828D02*
X171411653Y-90372257D01*
X171411653Y-90372257D02*
X171483081Y-90443685D01*
X171483081Y-90443685D02*
X171554510Y-90586542D01*
X171554510Y-90586542D02*
X171554510Y-90657971D01*
X171554510Y-90657971D02*
X171483081Y-90800828D01*
X171483081Y-90800828D02*
X171411653Y-90872257D01*
X171411653Y-90872257D02*
X171268795Y-90943685D01*
X171268795Y-90943685D02*
X170983081Y-90943685D01*
X170983081Y-90943685D02*
X170840224Y-91015114D01*
X170840224Y-91015114D02*
X170768795Y-91086542D01*
X170768795Y-91086542D02*
X170697367Y-91229400D01*
X170697367Y-91229400D02*
X170697367Y-91515114D01*
X170697367Y-91515114D02*
X170768795Y-91657971D01*
X170768795Y-91657971D02*
X170840224Y-91729400D01*
X170840224Y-91729400D02*
X170983081Y-91800828D01*
X170983081Y-91800828D02*
X171268795Y-91800828D01*
X171268795Y-91800828D02*
X171411653Y-91729400D01*
X171411653Y-91729400D02*
X171483081Y-91657971D01*
X171483081Y-91657971D02*
X171554510Y-91515114D01*
X171554510Y-91515114D02*
X171554510Y-91229400D01*
X171554510Y-91229400D02*
X171483081Y-91086542D01*
X171483081Y-91086542D02*
X171411653Y-91015114D01*
X171411653Y-91015114D02*
X171268795Y-90943685D01*
D12*
%TO.P,D1,2,A*%
%TO.N,Net-(D1-A)*%
X147975000Y-78000000D03*
%TO.P,D1,1,K*%
%TO.N,Net-(D1-K)*%
X147335000Y-78000000D03*
%TD*%
D13*
%TO.P,J1,2,Pin_2*%
%TO.N,GND*%
X170500000Y-52500000D03*
D14*
%TO.P,J1,1,Pin_1*%
%TO.N,VCC*%
X165500000Y-52500000D03*
D15*
%TO.P,J1,*%
%TO.N,*%
X173500000Y-47500000D03*
X162500000Y-47500000D03*
%TD*%
D16*
%TO.P,Q1,1,C*%
%TO.N,Net-(D1-K)*%
X160230000Y-84860000D03*
D17*
%TO.P,Q1,2,B*%
%TO.N,Net-(Q1-B)*%
X161500000Y-84860000D03*
%TO.P,Q1,3,E*%
%TO.N,VCC*%
X162770000Y-84860000D03*
%TD*%
D18*
%TO.P,R1,1*%
%TO.N,Net-(D1-A)*%
X141460000Y-64000000D03*
%TO.P,R1,2*%
%TO.N,GND*%
X144000000Y-64000000D03*
%TD*%
D19*
%TO.P,U1,1,GPIO0*%
%TO.N,unconnected-(U1-GPIO0-Pad1)*%
X101685000Y-49840000D03*
D20*
X100785000Y-49840000D03*
D19*
%TO.P,U1,2,GPIO1*%
%TO.N,unconnected-(U1-GPIO1-Pad2)*%
X101685000Y-52380000D03*
D20*
X100785000Y-52380000D03*
D21*
%TO.P,U1,3,GND*%
%TO.N,unconnected-(U1-GND-Pad3)*%
X101685000Y-54920000D03*
D20*
X100785000Y-54920000D03*
D19*
%TO.P,U1,4,GPIO2*%
%TO.N,unconnected-(U1-GPIO2-Pad4)*%
X101685000Y-57460000D03*
D20*
X100785000Y-57460000D03*
D19*
%TO.P,U1,5,GPIO3*%
%TO.N,unconnected-(U1-GPIO3-Pad5)*%
X101685000Y-60000000D03*
D20*
X100785000Y-60000000D03*
D19*
%TO.P,U1,6,GPIO4*%
%TO.N,unconnected-(U1-GPIO4-Pad6)*%
X101685000Y-62540000D03*
D20*
X100785000Y-62540000D03*
D19*
%TO.P,U1,7,GPIO5*%
%TO.N,unconnected-(U1-GPIO5-Pad7)*%
X101685000Y-65080000D03*
D20*
X100785000Y-65080000D03*
D21*
%TO.P,U1,8,GND*%
%TO.N,unconnected-(U1-GND-Pad8)*%
X101685000Y-67620000D03*
D20*
X100785000Y-67620000D03*
D19*
%TO.P,U1,9,GPIO6*%
%TO.N,unconnected-(U1-GPIO6-Pad9)*%
X101685000Y-70160000D03*
D20*
X100785000Y-70160000D03*
D19*
%TO.P,U1,10,GPIO7*%
%TO.N,unconnected-(U1-GPIO7-Pad10)*%
X101685000Y-72700000D03*
D20*
X100785000Y-72700000D03*
D19*
%TO.P,U1,11,GPIO8*%
%TO.N,unconnected-(U1-GPIO8-Pad11)*%
X101685000Y-75240000D03*
D20*
X100785000Y-75240000D03*
D19*
%TO.P,U1,12,GPIO9*%
%TO.N,unconnected-(U1-GPIO9-Pad12)*%
X101685000Y-77780000D03*
D20*
X100785000Y-77780000D03*
D21*
%TO.P,U1,13,GND*%
%TO.N,unconnected-(U1-GND-Pad13)*%
X101685000Y-80320000D03*
D20*
X100785000Y-80320000D03*
D19*
%TO.P,U1,14,GPIO10*%
%TO.N,unconnected-(U1-GPIO10-Pad14)*%
X101685000Y-82860000D03*
D20*
X100785000Y-82860000D03*
D19*
%TO.P,U1,15,GPIO11*%
%TO.N,unconnected-(U1-GPIO11-Pad15)*%
X101685000Y-85400000D03*
D20*
X100785000Y-85400000D03*
D19*
%TO.P,U1,16,GPIO12*%
%TO.N,unconnected-(U1-GPIO12-Pad16)*%
X101685000Y-87940000D03*
D20*
X100785000Y-87940000D03*
D19*
%TO.P,U1,17,GPIO13*%
%TO.N,unconnected-(U1-GPIO13-Pad17)*%
X101685000Y-90480000D03*
D20*
X100785000Y-90480000D03*
D21*
%TO.P,U1,18,GND*%
%TO.N,unconnected-(U1-GND-Pad18)*%
X101685000Y-93020000D03*
D20*
X100785000Y-93020000D03*
D19*
%TO.P,U1,19,GPIO14*%
%TO.N,unconnected-(U1-GPIO14-Pad19)*%
X101685000Y-95560000D03*
D20*
X100785000Y-95560000D03*
D19*
%TO.P,U1,20,GPIO15*%
%TO.N,unconnected-(U1-GPIO15-Pad20)*%
X101685000Y-98100000D03*
D20*
X100785000Y-98100000D03*
D19*
%TO.P,U1,21,GPIO16*%
%TO.N,unconnected-(U1-GPIO16-Pad21)*%
X119465000Y-98100000D03*
D20*
X120365000Y-98100000D03*
D19*
%TO.P,U1,22,GPIO17*%
%TO.N,unconnected-(U1-GPIO17-Pad22)*%
X119465000Y-95560000D03*
D20*
X120365000Y-95560000D03*
D21*
%TO.P,U1,23,GND*%
%TO.N,unconnected-(U1-GND-Pad23)*%
X119465000Y-93020000D03*
D20*
X120365000Y-93020000D03*
D19*
%TO.P,U1,24,GPIO18*%
%TO.N,unconnected-(U1-GPIO18-Pad24)*%
X119465000Y-90480000D03*
D20*
X120365000Y-90480000D03*
D19*
%TO.P,U1,25,GPIO19*%
%TO.N,unconnected-(U1-GPIO19-Pad25)*%
X119465000Y-87940000D03*
D20*
X120365000Y-87940000D03*
D19*
%TO.P,U1,26,GPIO20*%
%TO.N,Net-(U1-GPIO20)*%
X119465000Y-85400000D03*
D20*
X120365000Y-85400000D03*
D19*
%TO.P,U1,27,GPIO21*%
%TO.N,unconnected-(U1-GPIO21-Pad27)*%
X119465000Y-82860000D03*
D20*
X120365000Y-82860000D03*
D21*
%TO.P,U1,28,GND*%
%TO.N,unconnected-(U1-GND-Pad28)*%
X119465000Y-80320000D03*
D20*
X120365000Y-80320000D03*
D19*
%TO.P,U1,29,GPIO22*%
%TO.N,unconnected-(U1-GPIO22-Pad29)*%
X119465000Y-77780000D03*
D20*
X120365000Y-77780000D03*
D19*
%TO.P,U1,30,RUN*%
%TO.N,unconnected-(U1-RUN-Pad30)*%
X119465000Y-75240000D03*
D20*
X120365000Y-75240000D03*
D19*
%TO.P,U1,31,GPIO26_ADC0*%
%TO.N,unconnected-(U1-GPIO26_ADC0-Pad31)*%
X119465000Y-72700000D03*
D20*
X120365000Y-72700000D03*
D19*
%TO.P,U1,32,GPIO27_ADC1*%
%TO.N,unconnected-(U1-GPIO27_ADC1-Pad32)*%
X119465000Y-70160000D03*
D20*
X120365000Y-70160000D03*
D21*
%TO.P,U1,33,AGND*%
%TO.N,unconnected-(U1-AGND-Pad33)*%
X119465000Y-67620000D03*
D20*
X120365000Y-67620000D03*
D19*
%TO.P,U1,34,GPIO28_ADC2*%
%TO.N,unconnected-(U1-GPIO28_ADC2-Pad34)*%
X119465000Y-65080000D03*
D20*
X120365000Y-65080000D03*
D19*
%TO.P,U1,35,ADC_VREF*%
%TO.N,unconnected-(U1-ADC_VREF-Pad35)*%
X119465000Y-62540000D03*
D20*
X120365000Y-62540000D03*
D19*
%TO.P,U1,36,3V3*%
%TO.N,unconnected-(U1-3V3-Pad36)*%
X119465000Y-60000000D03*
D20*
X120365000Y-60000000D03*
D19*
%TO.P,U1,37,3V3_EN*%
%TO.N,unconnected-(U1-3V3_EN-Pad37)*%
X119465000Y-57460000D03*
D20*
X120365000Y-57460000D03*
D21*
%TO.P,U1,38,GND*%
%TO.N,GND*%
X119465000Y-54920000D03*
D20*
X120365000Y-54920000D03*
D19*
%TO.P,U1,39,VSYS*%
%TO.N,VCC*%
X119465000Y-52380000D03*
D20*
X120365000Y-52380000D03*
D19*
%TO.P,U1,40,VBUS*%
%TO.N,unconnected-(U1-VBUS-Pad40)*%
X119465000Y-49840000D03*
D20*
X120365000Y-49840000D03*
D19*
%TO.P,U1,41,SWCLK*%
%TO.N,unconnected-(U1-SWCLK-Pad41)*%
X108035000Y-97870000D03*
D22*
X108035000Y-98770000D03*
D21*
%TO.P,U1,42,GND*%
%TO.N,unconnected-(U1-GND-Pad42)*%
X110575000Y-97870000D03*
D22*
X110575000Y-98770000D03*
D19*
%TO.P,U1,43,SWDIO*%
%TO.N,unconnected-(U1-SWDIO-Pad43)*%
X113115000Y-97870000D03*
D22*
X113115000Y-98770000D03*
%TD*%
D18*
%TO.P,R2,1*%
%TO.N,Net-(U1-GPIO20)*%
X143460000Y-84870000D03*
%TO.P,R2,2*%
%TO.N,Net-(Q1-B)*%
X146000000Y-84870000D03*
%TD*%
D23*
%TO.N,Net-(D1-K)*%
X147335000Y-78000000D02*
X146199999Y-78000000D01*
X146199999Y-78000000D02*
X146000000Y-78199999D01*
%TO.N,Net-(D1-A)*%
X147975000Y-78000000D02*
X149371759Y-78000000D01*
D24*
%TO.N,VCC*%
X168000000Y-49500000D02*
X173500000Y-49500000D01*
%TO.N,Net-(D1-A)*%
X149371759Y-71911759D02*
X141460000Y-64000000D01*
X149371759Y-78000000D02*
X149371759Y-71911759D01*
%TO.N,Net-(D1-K)*%
X146500000Y-79500000D02*
X151860000Y-84860000D01*
X151860000Y-84860000D02*
X160230000Y-84860000D01*
X146500000Y-78699999D02*
X146500000Y-79500000D01*
X146000000Y-78199999D02*
X146500000Y-78699999D01*
%TO.N,Net-(Q1-B)*%
X162000000Y-86500000D02*
X161500000Y-86000000D01*
X150130000Y-89000000D02*
X147040000Y-85910000D01*
X157965000Y-89000000D02*
X150130000Y-89000000D01*
X162000000Y-86500000D02*
X160465000Y-86500000D01*
X160465000Y-86500000D02*
X157965000Y-89000000D01*
X161500000Y-86000000D02*
X161500000Y-84860000D01*
%TO.N,VCC*%
X173500000Y-75030000D02*
X173500000Y-49500000D01*
X173450000Y-75080000D02*
X173500000Y-75030000D01*
X172550000Y-75080000D02*
X173450000Y-75080000D01*
X162770000Y-84860000D02*
X172550000Y-75080000D01*
X168000000Y-50000000D02*
X168000000Y-49500000D01*
X165500000Y-52500000D02*
X168000000Y-50000000D01*
D23*
%TO.N,Net-(U1-GPIO20)*%
X142930000Y-85400000D02*
X143460000Y-84870000D01*
D24*
X119465000Y-85400000D02*
X142930000Y-85400000D01*
%TO.N,GND*%
X134920000Y-54920000D02*
X144000000Y-64000000D01*
X119465000Y-54920000D02*
X134920000Y-54920000D01*
%TO.N,Net-(Q1-B)*%
X147040000Y-85910000D02*
X146000000Y-84870000D01*
%TO.N,GND*%
X159000000Y-64000000D02*
X170500000Y-52500000D01*
X144000000Y-64000000D02*
X159000000Y-64000000D01*
%TO.N,VCC*%
X122740000Y-52500000D02*
X165500000Y-52500000D01*
D23*
X122620000Y-52380000D02*
X122740000Y-52500000D01*
D24*
X119465000Y-52380000D02*
X122620000Y-52380000D01*
%TD*%
M02*
