%TF.GenerationSoftware,KiCad,Pcbnew,8.0.0*%
%TF.CreationDate,2024-04-01T19:54:57-03:00*%
%TF.ProjectId,circuito,63697263-7569-4746-9f2e-6b696361645f,rev?*%
%TF.SameCoordinates,Original*%
%TF.FileFunction,Soldermask,Bot*%
%TF.FilePolarity,Negative*%
%FSLAX46Y46*%
G04 Gerber Fmt 4.6, Leading zero omitted, Abs format (unit mm)*
G04 Created by KiCad (PCBNEW 8.0.0) date 2024-04-01 19:54:57*
%MOMM*%
%LPD*%
G01*
G04 APERTURE LIST*
%ADD10C,3.500000*%
%ADD11R,3.500000X3.500000*%
%ADD12C,1.400000*%
%ADD13R,1.050000X1.500000*%
%ADD14O,1.050000X1.500000*%
%ADD15C,1.600000*%
%ADD16O,1.800000X1.800000*%
%ADD17O,1.500000X1.500000*%
%ADD18O,1.700000X1.700000*%
%ADD19R,1.700000X1.700000*%
G04 APERTURE END LIST*
D10*
%TO.C,J1*%
X170500000Y-52500000D03*
D11*
X165500000Y-52500000D03*
D12*
X173500000Y-47500000D03*
X162500000Y-47500000D03*
%TD*%
D13*
%TO.C,Q1*%
X160230000Y-84860000D03*
D14*
X161500000Y-84860000D03*
X162770000Y-84860000D03*
%TD*%
D15*
%TO.C,R1*%
X141460000Y-64000000D03*
X144000000Y-64000000D03*
%TD*%
D16*
%TO.C,U1*%
X107850000Y-49970000D03*
D17*
X108150000Y-53000000D03*
X113000000Y-53000000D03*
D16*
X113300000Y-49970000D03*
D18*
X101685000Y-49840000D03*
X101685000Y-52380000D03*
D19*
X101685000Y-54920000D03*
D18*
X101685000Y-57460000D03*
X101685000Y-60000000D03*
X101685000Y-62540000D03*
X101685000Y-65080000D03*
D19*
X101685000Y-67620000D03*
D18*
X101685000Y-70160000D03*
X101685000Y-72700000D03*
X101685000Y-75240000D03*
X101685000Y-77780000D03*
D19*
X101685000Y-80320000D03*
D18*
X101685000Y-82860000D03*
X101685000Y-85400000D03*
X101685000Y-87940000D03*
X101685000Y-90480000D03*
D19*
X101685000Y-93020000D03*
D18*
X101685000Y-95560000D03*
X101685000Y-98100000D03*
X119465000Y-98100000D03*
X119465000Y-95560000D03*
D19*
X119465000Y-93020000D03*
D18*
X119465000Y-90480000D03*
X119465000Y-87940000D03*
X119465000Y-85400000D03*
X119465000Y-82860000D03*
D19*
X119465000Y-80320000D03*
D18*
X119465000Y-77780000D03*
X119465000Y-75240000D03*
X119465000Y-72700000D03*
X119465000Y-70160000D03*
D19*
X119465000Y-67620000D03*
D18*
X119465000Y-65080000D03*
X119465000Y-62540000D03*
X119465000Y-60000000D03*
X119465000Y-57460000D03*
D19*
X119465000Y-54920000D03*
D18*
X119465000Y-52380000D03*
X119465000Y-49840000D03*
X108035000Y-97870000D03*
D19*
X110575000Y-97870000D03*
D18*
X113115000Y-97870000D03*
%TD*%
D15*
%TO.C,R2*%
X143460000Y-84870000D03*
X146000000Y-84870000D03*
%TD*%
M02*
