%TF.GenerationSoftware,KiCad,Pcbnew,8.0.0*%
%TF.CreationDate,2024-04-01T19:54:57-03:00*%
%TF.ProjectId,circuito,63697263-7569-4746-9f2e-6b696361645f,rev?*%
%TF.SameCoordinates,Original*%
%TF.FileFunction,Soldermask,Top*%
%TF.FilePolarity,Negative*%
%FSLAX46Y46*%
G04 Gerber Fmt 4.6, Leading zero omitted, Abs format (unit mm)*
G04 Created by KiCad (PCBNEW 8.0.0) date 2024-04-01 19:54:57*
%MOMM*%
%LPD*%
G01*
G04 APERTURE LIST*
G04 Aperture macros list*
%AMRoundRect*
0 Rectangle with rounded corners*
0 $1 Rounding radius*
0 $2 $3 $4 $5 $6 $7 $8 $9 X,Y pos of 4 corners*
0 Add a 4 corners polygon primitive as box body*
4,1,4,$2,$3,$4,$5,$6,$7,$8,$9,$2,$3,0*
0 Add four circle primitives for the rounded corners*
1,1,$1+$1,$2,$3*
1,1,$1+$1,$4,$5*
1,1,$1+$1,$6,$7*
1,1,$1+$1,$8,$9*
0 Add four rect primitives between the rounded corners*
20,1,$1+$1,$2,$3,$4,$5,0*
20,1,$1+$1,$4,$5,$6,$7,0*
20,1,$1+$1,$6,$7,$8,$9,0*
20,1,$1+$1,$8,$9,$2,$3,0*%
G04 Aperture macros list end*
%ADD10RoundRect,0.100000X-0.130000X-0.100000X0.130000X-0.100000X0.130000X0.100000X-0.130000X0.100000X0*%
%ADD11C,3.500000*%
%ADD12R,3.500000X3.500000*%
%ADD13C,1.400000*%
%ADD14R,1.050000X1.500000*%
%ADD15O,1.050000X1.500000*%
%ADD16C,1.600000*%
%ADD17O,1.800000X1.800000*%
%ADD18O,1.500000X1.500000*%
%ADD19O,1.700000X1.700000*%
%ADD20R,3.500000X1.700000*%
%ADD21R,1.700000X1.700000*%
%ADD22R,1.700000X3.500000*%
G04 APERTURE END LIST*
D10*
%TO.C,D1*%
X147975000Y-78000000D03*
X147335000Y-78000000D03*
%TD*%
D11*
%TO.C,J1*%
X170500000Y-52500000D03*
D12*
X165500000Y-52500000D03*
D13*
X173500000Y-47500000D03*
X162500000Y-47500000D03*
%TD*%
D14*
%TO.C,Q1*%
X160230000Y-84860000D03*
D15*
X161500000Y-84860000D03*
X162770000Y-84860000D03*
%TD*%
D16*
%TO.C,R1*%
X141460000Y-64000000D03*
X144000000Y-64000000D03*
%TD*%
D17*
%TO.C,U1*%
X107850000Y-49970000D03*
D18*
X108150000Y-53000000D03*
X113000000Y-53000000D03*
D17*
X113300000Y-49970000D03*
D19*
X101685000Y-49840000D03*
D20*
X100785000Y-49840000D03*
D19*
X101685000Y-52380000D03*
D20*
X100785000Y-52380000D03*
D21*
X101685000Y-54920000D03*
D20*
X100785000Y-54920000D03*
D19*
X101685000Y-57460000D03*
D20*
X100785000Y-57460000D03*
D19*
X101685000Y-60000000D03*
D20*
X100785000Y-60000000D03*
D19*
X101685000Y-62540000D03*
D20*
X100785000Y-62540000D03*
D19*
X101685000Y-65080000D03*
D20*
X100785000Y-65080000D03*
D21*
X101685000Y-67620000D03*
D20*
X100785000Y-67620000D03*
D19*
X101685000Y-70160000D03*
D20*
X100785000Y-70160000D03*
D19*
X101685000Y-72700000D03*
D20*
X100785000Y-72700000D03*
D19*
X101685000Y-75240000D03*
D20*
X100785000Y-75240000D03*
D19*
X101685000Y-77780000D03*
D20*
X100785000Y-77780000D03*
D21*
X101685000Y-80320000D03*
D20*
X100785000Y-80320000D03*
D19*
X101685000Y-82860000D03*
D20*
X100785000Y-82860000D03*
D19*
X101685000Y-85400000D03*
D20*
X100785000Y-85400000D03*
D19*
X101685000Y-87940000D03*
D20*
X100785000Y-87940000D03*
D19*
X101685000Y-90480000D03*
D20*
X100785000Y-90480000D03*
D21*
X101685000Y-93020000D03*
D20*
X100785000Y-93020000D03*
D19*
X101685000Y-95560000D03*
D20*
X100785000Y-95560000D03*
D19*
X101685000Y-98100000D03*
D20*
X100785000Y-98100000D03*
D19*
X119465000Y-98100000D03*
D20*
X120365000Y-98100000D03*
D19*
X119465000Y-95560000D03*
D20*
X120365000Y-95560000D03*
D21*
X119465000Y-93020000D03*
D20*
X120365000Y-93020000D03*
D19*
X119465000Y-90480000D03*
D20*
X120365000Y-90480000D03*
D19*
X119465000Y-87940000D03*
D20*
X120365000Y-87940000D03*
D19*
X119465000Y-85400000D03*
D20*
X120365000Y-85400000D03*
D19*
X119465000Y-82860000D03*
D20*
X120365000Y-82860000D03*
D21*
X119465000Y-80320000D03*
D20*
X120365000Y-80320000D03*
D19*
X119465000Y-77780000D03*
D20*
X120365000Y-77780000D03*
D19*
X119465000Y-75240000D03*
D20*
X120365000Y-75240000D03*
D19*
X119465000Y-72700000D03*
D20*
X120365000Y-72700000D03*
D19*
X119465000Y-70160000D03*
D20*
X120365000Y-70160000D03*
D21*
X119465000Y-67620000D03*
D20*
X120365000Y-67620000D03*
D19*
X119465000Y-65080000D03*
D20*
X120365000Y-65080000D03*
D19*
X119465000Y-62540000D03*
D20*
X120365000Y-62540000D03*
D19*
X119465000Y-60000000D03*
D20*
X120365000Y-60000000D03*
D19*
X119465000Y-57460000D03*
D20*
X120365000Y-57460000D03*
D21*
X119465000Y-54920000D03*
D20*
X120365000Y-54920000D03*
D19*
X119465000Y-52380000D03*
D20*
X120365000Y-52380000D03*
D19*
X119465000Y-49840000D03*
D20*
X120365000Y-49840000D03*
D19*
X108035000Y-97870000D03*
D22*
X108035000Y-98770000D03*
D21*
X110575000Y-97870000D03*
D22*
X110575000Y-98770000D03*
D19*
X113115000Y-97870000D03*
D22*
X113115000Y-98770000D03*
%TD*%
D16*
%TO.C,R2*%
X143460000Y-84870000D03*
X146000000Y-84870000D03*
%TD*%
M02*
